<?xml version="1.0" encoding="utf-8"?>
<!-- Generator: Adobe Illustrator 27.9.0, SVG Export Plug-In . SVG Version: 6.00 Build 0)  -->
<svg version="1.1" xmlns="http://www.w3.org/2000/svg" xmlns:xlink="http://www.w3.org/1999/xlink" x="0px" y="0px"
	 viewBox="0 0 2159.7 2159.7" style="enable-background:new 0 0 2159.7 2159.7;" xml:space="preserve">
<style type="text/css">
	.st0{fill:none;stroke:#E30613;stroke-miterlimit:10;}
</style>
<g id="Layer_1">
	
		<image style="overflow:visible;" width="2160" height="2160" xlink:href="527501B8.jpg"  transform="matrix(0.9999 0 0 0.9999 0 0)">
	</image>
</g>
<g id="Layer_2">
	<polygon id="NH05-29_x5F_01" class="st0" points="2006.1,1265.2 2055.6,1234 2022.1,1203.7 1990.1,1224.2 1988.9,1233.1 
		1981.8,1236.3 1980.3,1242.8 	"/>
	<polygon id="NH05-29_x5F_02" class="st0" points="2005.1,1190.1 1981.8,1202.7 1977.4,1218.4 1968,1225.1 1968,1231.6 
		1980.3,1242.8 1981.8,1236.3 1988.9,1233.1 1990.1,1224.2 2022.1,1203.7 	"/>
	<polygon id="NH05-29_x5F_03" class="st0" points="1986.6,1174.8 2005.1,1190.1 1981.8,1202.7 1977.4,1218.4 1968,1225.1 
		1968,1231.6 1946.4,1212.6 1947.3,1206.4 1957.1,1200 1958.1,1190.1 	"/>
	<polygon id="NH05-29_x5F_04" class="st0" points="1970.3,1160.3 1986.6,1174.8 1958.1,1190.1 1957.1,1200 1947.3,1206.4 
		1946.4,1212.6 1933.4,1200.8 1933.4,1195.4 1943.4,1189.1 1948.6,1172.5 	"/>
	<polygon id="NH05-29_x5F_05" class="st0" points="1952.8,1145.2 1970.3,1160.3 1948.6,1172.5 1943.4,1189.1 1933.4,1195.4 
		1933.4,1200.8 1914,1182.3 1914,1176.2 1923.3,1170.6 1923.9,1163 	"/>
	<polygon id="NH05-29_x5F_06" class="st0" points="1933.4,1128.5 1952.8,1145.2 1923.9,1163 1923.3,1170.6 1914,1176.2 1914,1182.3 
		1885.7,1158.1 	"/>
	<polygon id="NH05-30_x5F_01" class="st0" points="1901.4,1100.2 1868.9,1118.1 1867.6,1127.7 1860.6,1131.4 1860.6,1136.5 
		1885.7,1158.1 1933.4,1128.5 	"/>
	<polygon id="NH05-30_x5F_02" class="st0" points="1883.7,1086.3 1859.9,1099.3 1857.7,1114.4 1847.6,1121.1 1847.6,1126.8 
		1860.6,1136.5 1860.6,1131.4 1867.6,1127.7 1868.9,1118.1 1901.4,1100.2 	"/>
	<polygon id="NH05-30_x5F_03" class="st0" points="1866.6,1072.5 1883.7,1086.3 1859.9,1099.3 1857.7,1114.4 1847.6,1121.1 
		1847.6,1126.8 1828.2,1108.5 1828.2,1102.4 1838,1096.6 1838.4,1088 	"/>
	<polygon id="NH05-30_x5F_04" class="st0" points="1850.8,1058.1 1866.6,1072.5 1838.4,1088 1838,1096.6 1828.2,1102.4 
		1828.2,1108.5 1815.6,1097.7 1815.6,1091.9 1825.8,1085.1 1828.2,1070.1 	"/>
	<polygon id="NH05-30_x5F_05" class="st0" points="1834.4,1044 1850.8,1058.1 1828.2,1070.1 1825.8,1085.1 1815.6,1091.9 
		1815.6,1097.7 1796.5,1081.7 1800,1080.5 1800.6,1072.5 1806.1,1069.7 1806.1,1060.9 	"/>
	<polygon id="NH05-30_x5F_06" class="st0" points="1816.8,1028.8 1834.4,1044 1806.1,1060.9 1806.1,1069.7 1800.6,1072.5 
		1800,1080.5 1796.5,1081.7 1770.8,1060.5 1770.8,1057.4 1785.1,1048.9 1785.2,1047 	"/>
	<polygon id="NH05-31_x5F_01" class="st0" points="1808,1020.3 1756.8,1049.8 1736,1030.7 1736,1022.7 1743.9,1019.1 1744,1010.6 
		1775.7,993.2 	"/>
	<polygon id="NH05-31_x5F_02" class="st0" points="1759.4,980.5 1775.7,993.2 1744,1010.6 1743.9,1019.1 1736,1022.7 1736,1030.7 
		1723.6,1020.2 1723.6,1013.5 1735.4,1007.4 1737.1,993.2 	"/>
	<polygon id="NH05-31_x5F_03" class="st0" points="1744.9,967.6 1759.4,980.5 1737.1,993.2 1735.4,1007.4 1723.6,1013.5 
		1723.6,1020.2 1705.7,1003.4 1705.7,996.3 1716,991.7 1716.5,983.9 	"/>
	<polygon id="NH05-31_x5F_04" class="st0" points="1727.1,952.8 1744.9,967.6 1716.5,983.9 1716,991.7 1705.7,996.3 1705.7,1003.4 
		1681.1,983.6 1694.8,974.6 1695.1,970.1 	"/>
	<polygon id="NH05-32_x5F_01" class="st0" points="1696.1,926.1 1727.1,952.8 1695.1,970.1 1694.8,974.6 1681.1,983.6 1657.5,962.8 
		1657.5,955.8 1664.9,951.6 1665.1,943.7 	"/>
	<polygon id="NH05-32_x5F_02" class="st0" points="1681.1,914.7 1696.1,926.1 1665.1,943.7 1664.9,951.6 1657.5,955.8 1657.5,962.8 
		1645.7,951.9 1645.7,946 1656.6,940.4 1658.3,926.1 	"/>
	<polygon id="NH05-32_x5F_03" class="st0" points="1666,901.3 1681.1,914.7 1658.3,926.1 1656.6,940.4 1645.7,946 1645.7,951.9 
		1629.6,938.1 1629.6,932.3 1637.9,926.6 1638.4,918.1 	"/>
	<polygon id="NH05-32_x5F_04" class="st0" points="1648.7,887.1 1666,901.3 1638.4,918.1 1637.9,926.6 1629.6,932.3 1629.6,938.1 
		1603.3,917.7 1617.6,908.6 1617.6,905 	"/>
	<polygon id="NH05-33_x5F_01" class="st0" points="1621.3,864.4 1648.7,887.1 1617.6,905 1617.6,908.6 1603.3,917.7 1581.9,899.1 
		1581.9,893.1 1588.9,889.9 1589.3,880.7 	"/>
	<polygon id="NH05-33_x5F_02" class="st0" points="1605.6,853.1 1621.3,864.4 1589.3,880.7 1588.9,889.9 1581.9,893.1 1581.9,899.1 
		1570.8,888 1570.8,883.8 1581.9,878.1 1583.4,864.4 	"/>
	<polygon id="NH05-33_x5F_03" class="st0" points="1589.8,840.1 1605.6,853.1 1583.4,864.4 1581.9,878.1 1570.8,883.8 1570.8,888 
		1555.1,875.4 1555.1,868.5 1563.6,863.4 1563.8,854.5 	"/>
	<polygon id="NH05-33_x5F_04" class="st0" points="1576.1,828.4 1589.8,840.1 1563.8,854.5 1563.6,863.4 1555.1,868.5 1555.1,875.4 
		1542.1,865.8 1542.1,859.1 1553.3,852.7 1554.6,839 	"/>
	<polygon id="NH05-33_x5F_05" class="st0" points="1561.8,815.7 1576.1,828.4 1554.6,839 1553.3,852.7 1542.1,859.1 1542.1,865.8 
		1525.4,851.1 1525.4,845 1534.3,841.5 1533.9,832.7 	"/>
	<polygon id="NH05-33_x5F_06" class="st0" points="1545.5,802.7 1561.8,815.7 1533.9,832.7 1534.3,841.5 1525.4,845 1525.4,851.1 
		1502.5,832.5 1515.4,824 1515.5,819.6 	"/>
	<polygon id="NH05-34_x5F_01" class="st0" points="1519,780.4 1545.5,802.7 1515.5,819.6 1515.4,824 1502.5,832.5 1481,813.9 
		1481,807.7 1487.9,804.6 1488.4,796 	"/>
	<polygon id="NH05-34_x5F_02" class="st0" points="1504.3,768.5 1519,780.4 1488.4,796 1487.9,804.6 1481,807.7 1481,813.9 
		1470.7,805.4 1470.7,799.3 1481.9,793.8 1482.7,779.1 	"/>
	<polygon id="NH05-34_x5F_03" class="st0" points="1490.3,756.9 1504.3,768.5 1482.7,779.1 1481.9,793.8 1470.7,799.3 1470.7,805.4 
		1457.5,794.6 1457.5,786.1 1464.5,782.4 1464.8,771.7 	"/>
	<polygon id="NH05-34_x5F_04" class="st0" points="1476.8,745.8 1490.3,756.9 1464.8,771.7 1464.5,782.4 1457.5,786.1 1457.5,794.6 
		1443.4,782.7 1443.4,776.3 1455.4,770.2 1455.7,755.7 	"/>
	<polygon id="NH05-34_x5F_05" class="st0" points="1463.3,733.9 1476.8,745.8 1455.7,755.7 1455.4,770.2 1443.4,776.3 1443.4,782.7 
		1429.8,770.2 1429.8,761.4 1436.7,757.6 1436.9,749.1 	"/>
	<polygon id="NH05-34_x5F_06" class="st0" points="1448.3,721.8 1463.3,733.9 1436.9,749.1 1436.7,757.6 1429.8,761.4 1429.8,770.2 
		1405.6,750.9 1417.8,744.1 1417.9,737.8 	"/>
	<polygon id="NH05-35_x5F_01" class="st0" points="1421.7,701.1 1448.3,721.8 1417.9,737.8 1417.8,744.1 1405.6,750.9 1385.5,734.6 
		1385.5,727.6 1391.1,725.1 1391.4,715.6 	"/>
	<polygon id="NH05-35_x5F_02" class="st0" points="1407.9,690.3 1421.7,701.1 1391.4,715.6 1391.1,725.1 1385.5,727.6 1385.5,734.6 
		1375.4,726 1375.4,718.8 1385.5,714.4 1386.6,699.7 	"/>
	<polygon id="NH05-35_x5F_03" class="st0" points="1392.9,679 1407.9,690.3 1386.6,699.7 1385.5,714.4 1375.4,718.8 1375.4,726 
		1360.3,711.4 1360.3,704 1367.6,700.5 1367.9,692.2 	"/>
	<polygon id="NH05-35_x5F_04" class="st0" points="1380,668.6 1392.9,679 1367.9,692.2 1367.6,700.5 1360.3,704 1360.3,711.4 
		1350,703.6 1350,698.3 1359.4,691.9 1359.4,679 	"/>
	<polygon id="NH05-35_x5F_05" class="st0" points="1367.7,657.4 1380,668.6 1359.4,679 1359.4,691.9 1350,698.3 1350,703.6 
		1334.8,691.6 1334.8,684 1341.4,680.5 1341.2,673.2 	"/>
	<polygon id="NH05-35_x5F_06" class="st0" points="1353.5,645.4 1367.7,657.4 1341.2,673.2 1341.4,680.5 1334.8,684 1334.8,691.6 
		1311,673.1 1323.6,667.7 1323.9,661.1 	"/>
	<polygon id="NH05-37_x5F_06" class="st0" points="1173.1,784.5 1136.6,749.6 1151.7,742.8 1151.5,739.9 1170.5,731.6 1192.7,752.3 
		1193.1,761.1 1198.6,764.5 1198.6,771.8 	"/>
	<polygon id="NH05-37_x5F_05" class="st0" points="1211.9,765 1198.6,771.8 1198.6,764.5 1193.1,761.1 1192.7,752.3 1170.5,731.6 
		1188.1,723.8 1203.9,738.1 1204.1,752.1 1211.3,758 	"/>
	<polygon id="NH05-37_x5F_04" class="st0" points="1205.7,715.7 1188.1,723.8 1203.9,738.1 1204.1,752.1 1211.3,758 1211.9,765 
		1230.8,755.1 1230.8,748.8 1224.5,742.3 1224.6,734.1 	"/>
	<polygon id="NH05-37_x5F_03" class="st0" points="1221.5,707.9 1205.7,715.7 1224.6,734.1 1224.5,742.3 1230.8,748.8 1230.8,755.1 
		1243.3,749.4 1243.7,742.7 1237.3,736.3 1237.3,721.5 	"/>
	<polygon id="NH05-37_x5F_02" class="st0" points="1238.7,698.9 1221.5,707.9 1237.3,721.5 1237.3,736.3 1243.7,742.7 1243.3,749.4 
		1265.1,739 1265.1,732.7 1258.4,726.9 1258.4,718.1 	"/>
	<polygon id="NH05-37_x5F_01" class="st0" points="1256.4,690 1238.7,698.9 1258.4,718.1 1258.4,726.9 1265.1,732.7 1265.1,739 
		1288.9,726.3 1280,717.5 1280.3,711.4 	"/>
	<polygon id="NH05-25_x5F_06" class="st0" points="1900.6,1311.1 1874.5,1286.6 1887.5,1278.3 1887.5,1268 1922.9,1245.7 
		1943.5,1263.4 1943.5,1270.4 1953.4,1278.9 	"/>
	<polygon id="NH05-25_x5F_05" class="st0" points="1857.9,1270.5 1874.5,1286.6 1887.5,1278.3 1887.5,1268 1903.3,1258 1918,1248.8 
		1910.3,1242 1907.9,1242.8 1899.3,1234.5 1875.4,1250.4 1874.5,1259.1 	"/>
	<polygon id="NH05-25_x5F_04" class="st0" points="1841.4,1254.8 1857.9,1270.5 1874.5,1259.1 1875.4,1250.4 1899.3,1234.5 
		1905.8,1240.8 1906.1,1230.8 1894.6,1219.9 1890.4,1222.7 1884.3,1217.8 1857.4,1234.5 1856.8,1240.9 1854.1,1244.1 1854.1,1245.7 
			"/>
	<polygon id="NH05-25_x5F_03" class="st0" points="1824.9,1239.1 1841.4,1254.8 1854.1,1245.7 1854.1,1244.1 1856.8,1240.9 
		1857.4,1234.5 1884.3,1217.8 1890.4,1222.7 1894.6,1219.9 1881.4,1209.1 1873.6,1212.6 1865.2,1204.8 1842,1218.8 1840.6,1228.8 	
		"/>
	<polygon id="NH05-25_x5F_02" class="st0" points="1872.6,1211.7 1872.6,1201.5 1862.3,1192 1862.3,1189.5 1857.1,1185.4 
		1822.7,1205.7 1821.7,1216.5 1807.6,1224.6 1824.9,1239.1 1840.6,1228.8 1842,1218.8 1865.2,1204.8 	"/>
	<polygon id="NH05-25_x5F_01" class="st0" points="1784.2,1203.2 1807.6,1224.6 1821.7,1216.5 1822.7,1205.7 1857.1,1185.4 
		1837.5,1168.3 1808.2,1185.4 1806.6,1187.4 1802.7,1190.1 	"/>
	<polygon id="NH05-24_x5F_01" class="st0" points="1758.1,1180 1784.2,1203.2 1806.6,1187.4 1808.2,1185.4 1833.1,1170.9 
		1823.7,1163.7 1823.7,1157.1 1804.8,1140 1800.6,1143 1771.9,1161.8 1770.8,1171.6 	"/>
	<polygon id="NH05-24_x5F_02" class="st0" points="1742,1164.9 1758.1,1180 1770.8,1171.6 1771.9,1161.8 1800.6,1143 1793.1,1136.5 
		1790.1,1138.4 1781.1,1130.6 1760.5,1144.5 1759.7,1154.3 	"/>
	<polygon id="NH05-24_x5F_03" class="st0" points="1725.7,1151 1742,1164.9 1759.7,1154.3 1760.5,1144.5 1781.1,1130.6 
		1788.9,1137.4 1788.9,1126.8 1776.5,1117.4 1772.8,1120.3 1768.6,1116.8 1742,1131.7 1739.6,1141.8 	"/>
	<polygon id="NH05-24_x5F_04" class="st0" points="1710.4,1136.5 1725.7,1151 1739.6,1141.8 1742,1131.7 1768.6,1116.8 1772,1119.7 
		1772,1112.5 1761.7,1104 1757.3,1107 1753.5,1101.2 1723.9,1118.3 1722.7,1128.5 	"/>
	<polygon id="NH05-24_x5F_05" class="st0" points="1686.7,1115.9 1710.4,1136.5 1722.7,1128.5 1723.9,1118.3 1753.5,1101.2 
		1755.8,1104.8 1755.8,1097.7 1738.6,1082.6 1708.6,1099 1708.6,1101.2 1704.5,1103.6 1704.8,1105.2 	"/>
	<polygon id="NH05-5_x5F_06" class="st0" points="1844.5,1346.8 1786.8,1375 1763.7,1351.6 1763.7,1344.8 1772.6,1341.5 
		1773.2,1332.2 1812.9,1314.6 	"/>
	<polygon id="NH05-5_x5F_05" class="st0" points="1804.8,1303.7 1812.9,1314.6 1773.2,1332.2 1772.6,1341.5 1763.7,1344.8 
		1763.7,1351.6 1752,1338 1752,1331.7 1765.2,1326.4 1769.1,1309.2 1794.1,1299.1 1799.9,1306.1 	"/>
	<polygon id="NH05-5_x5F_04" class="st0" points="1733.5,1316.9 1752,1338 1752,1331.7 1765.2,1326.4 1769.1,1309.2 1794.1,1299.1 
		1799.9,1306.1 1804.8,1303.7 1790.4,1286.6 1784.2,1289.7 1777.4,1282.7 1747.9,1296.5 1747.1,1304.3 1734.7,1311.1 	"/>
	<polygon id="NH05-5_x5F_03" class="st0" points="1722.3,1304.6 1733.5,1316.9 1734.7,1311.1 1747.1,1304.3 1747.9,1296.5 
		1777.4,1282.7 1784.2,1289.7 1790.4,1286.6 1775.1,1270.5 1769.1,1273.8 1762.7,1266.3 1740.9,1276.5 1735.9,1291.6 1722.3,1298 	
		"/>
	<polygon id="NH05-5_x5F_02" class="st0" points="1703.7,1283.7 1722.3,1304.6 1722.3,1298 1735.9,1291.6 1740.9,1276.5 
		1762.7,1266.3 1769.1,1273.8 1775.1,1270.5 1760.5,1253.4 1755,1256.2 1748.3,1248.9 1718.8,1264.9 1717.8,1272.3 1705.1,1277.5 	
		"/>
	<polygon id="NH05-5_x5F_01" class="st0" points="1681.2,1259 1703.7,1283.7 1705.1,1277.5 1717.8,1272.3 1718.8,1264.9 
		1748.3,1248.9 1755,1256.2 1760.5,1253.4 1737.8,1229.8 1734.1,1231.4 1732.5,1229.8 1696.9,1247.1 1696.6,1250.7 	"/>
	<polygon id="NH05-6_x5F_01" class="st0" points="1733.5,1226.1 1672.9,1250.3 1654.8,1225.5 1654.8,1219.6 1663.6,1216.9 
		1664,1208.2 1705.5,1192.5 	"/>
	<polygon id="NH05-6_x5F_02" class="st0" points="1698.3,1183.3 1705.5,1192.5 1664,1208.2 1663.6,1216.9 1654.8,1219.6 
		1654.8,1225.5 1644.3,1212.9 1644.3,1208 1659.1,1201.5 1661.2,1186 1685.7,1177.5 1691.3,1184.9 	"/>
	<polygon id="NH05-6_x5F_03" class="st0" points="1685.5,1167 1698.3,1183.3 1691.3,1184.9 1685.7,1177.5 1661.2,1186 
		1659.1,1201.5 1644.3,1208 1644.3,1212.9 1629.4,1195.9 1629.4,1187 1641.1,1183.6 1642,1174.7 1674.9,1163 1679.4,1169.2 	"/>
	<polygon id="NH05-6_x5F_04" class="st0" points="1665.5,1143.4 1685.5,1167 1679.4,1169.2 1674.9,1163 1642,1174.7 1641.1,1183.6 
		1629.4,1187 1629.4,1195.9 1607.1,1169.7 1622.3,1163 1622,1158.6 1658.3,1142.7 	"/>
	<polygon id="NH05-4_x5F_01" class="st0" points="1749.8,1409.1 1690.8,1439.3 1667.7,1410.7 1681.2,1403.6 1681.5,1394.6 
		1721.4,1372.9 1740.5,1393 1740.5,1398.8 	"/>
	<polygon id="NH05-4_x5F_02" class="st0" points="1653.4,1392.6 1667.7,1410.7 1681.2,1403.6 1681.5,1394.6 1722.3,1372.3 
		1715.9,1365 1709.8,1368.6 1708.8,1367.1 1703.7,1370.3 1696.3,1360.9 1672.4,1374 1671.3,1384.1 	"/>
	<polygon id="NH05-4_x5F_03" class="st0" points="1637.8,1375 1653.4,1392.6 1671.3,1384.1 1672.4,1374 1696.3,1360.9 
		1703.7,1370.3 1707.4,1368 1707.4,1356.2 1695.9,1344.8 1690.6,1347 1685.2,1341.2 1654.7,1356 1653.4,1364.5 1650.8,1366.9 
		1650.8,1368.6 	"/>
	<polygon id="NH05-4_x5F_04" class="st0" points="1623.4,1358.1 1637.8,1375 1650.8,1368.6 1650.8,1366.9 1653.4,1364.5 
		1654.7,1356 1685.2,1341.2 1690.6,1347 1695.9,1344.8 1684.2,1331.6 1674.1,1336.2 1666.4,1326.4 1640.3,1339.7 1640,1349.1 	"/>
	<polygon id="NH05-4_x5F_05" class="st0" points="1607.7,1341.2 1623.4,1358.1 1640,1349.1 1640.3,1339.7 1666.4,1326.4 
		1674.1,1336.2 1676,1335.3 1676.8,1322 1667,1310.3 1660.8,1313.8 1656.3,1308.2 1626.1,1322.3 1621.8,1325.4 1622,1331.9 
		1620.8,1333.1 1620.5,1335.3 	"/>
	<polygon id="NH05-4_x5F_06" class="st0" points="1586.7,1318.1 1607.7,1341.2 1620.5,1335.3 1620.8,1333.1 1622,1331.9 
		1621.8,1325.4 1626.1,1322.3 1656.3,1308.2 1660.8,1313.8 1660.8,1304.6 1644.2,1286.4 1608.6,1302 1608.8,1304.6 1604.8,1306.8 
		1605.1,1308.2 	"/>
	<polygon id="NH05-3_x5F_06" class="st0" points="1562.6,1286.4 1582.8,1314.7 1608.8,1304.6 1608.6,1302 1644.2,1286.4 
		1635.3,1277.8 1635.3,1272.3 1624.3,1259.3 1621.1,1260.5 1616.2,1253.8 1576.5,1270 1576,1276.8 1575.1,1276.8 1575.1,1280.2 	"/>
	<polygon id="NH05-3_x5F_05" class="st0" points="1548.8,1269.5 1562.6,1286.4 1575.1,1280.2 1575.1,1276.8 1576,1276.8 
		1576.5,1270 1616.2,1253.8 1616.2,1250.3 1611.7,1245.7 1606.1,1248.3 1604.6,1246.6 1600.6,1248.9 1593.8,1240.2 1568.9,1251.3 
		1568,1261.2 	"/>
	<polygon id="NH05-3_x5F_04" class="st0" points="1536.3,1253.1 1548.8,1269.5 1568,1261.2 1568.9,1251.3 1593.8,1240.2 
		1600.6,1248.9 1604.6,1246.6 1605.5,1237.1 1596.2,1225.5 1589.5,1227.6 1584.3,1221.4 1554.4,1234.4 1553.4,1241.5 1550.8,1241.8 
		1550.6,1246.6 	"/>
	<polygon id="NH05-3_x5F_03" class="st0" points="1523.3,1236.2 1536.3,1253.1 1550.6,1246.6 1550.8,1241.8 1553.4,1241.5 
		1554.4,1234.4 1584.3,1221.4 1589.5,1227.6 1596.2,1225.5 1586.6,1212.9 1579.9,1215.4 1577.5,1213.5 1573.5,1215 1567.6,1207.7 
		1541.7,1218.4 1540.3,1228.5 	"/>
	<polygon id="NH05-3_x5F_02" class="st0" points="1510.4,1220.5 1523.3,1236.2 1540.3,1228.5 1541.7,1218.4 1567.6,1207.7 
		1573.5,1215 1577.5,1213.5 1578.6,1203.9 1570.9,1194.1 1564.2,1195.9 1559.7,1190.4 1524.3,1204.5 1524.2,1210.4 1523.3,1211.3 
		1523.3,1214.8 	"/>
	<polygon id="NH05-3_x5F_01" class="st0" points="1492.3,1197.7 1510.4,1220.5 1523.3,1214.8 1523.3,1211.3 1524.2,1210.4 
		1524.3,1204.5 1559.7,1190.4 1564.2,1195.9 1570.9,1194.1 1570.9,1191.4 1549.4,1169.3 1514.3,1182.3 1514.4,1184.6 1508.9,1186.7 
		1511,1188.6 	"/>
	<polygon id="NH05-26_x5F_01" class="st0" points="1749.8,1480 1801.4,1532.2 1831,1512.9 1819.1,1499.6 1821.8,1497.4 
		1822.1,1490.3 1787.6,1455.7 1783.6,1458.6 1780.6,1455.7 1762.4,1467.7 1761.8,1472 	"/>
	<polygon id="NH05-26_x5F_02" class="st0" points="1850.3,1500 1831,1512.9 1819.1,1499.6 1821.8,1497.4 1822.1,1490.3 
		1787.6,1455.7 1783.6,1458.6 1781.5,1456.6 1794,1448.9 1800,1455.7 1801.4,1454.6 1806,1458.6 1815.9,1451.7 1836.6,1472.9 
		1836.3,1484.9 	"/>
	<polygon id="NH05-26_x5F_03" class="st0" points="1869.1,1487.9 1850.3,1500 1836.3,1484.9 1836.6,1472.9 1815.9,1451.7 
		1806,1458.6 1801.4,1454.6 1800,1455.7 1797.2,1451.7 1801.8,1448.9 1802.3,1443.4 1817.2,1434.3 1824.5,1440.2 1829.2,1437.4 
		1857.2,1460.2 1856,1471.4 1857.7,1472.9 1857.1,1475.9 	"/>
	<polygon id="NH05-26_x5F_04" class="st0" points="1887.4,1475.3 1869.1,1487.9 1857.1,1475.9 1857.7,1472.9 1856,1471.4 
		1857.2,1460.2 1829.2,1437.4 1824.5,1440.2 1817.2,1434.3 1831,1425.4 1837.8,1431.4 1839.3,1430.4 1844.2,1435 1854.1,1428.3 
		1875.6,1448.9 1874.8,1460.9 	"/>
	<polygon id="NH05-26_x5F_05" class="st0" points="1906.4,1463.4 1887.4,1475.3 1874.8,1460.9 1875.6,1448.9 1854.1,1428.3 
		1844.2,1435 1839.3,1430.4 1837.8,1431.4 1834.3,1428.3 1839,1426 1839.4,1419.6 1854.6,1411 1861.4,1416.8 1866.8,1413.4 
		1895.1,1436.8 1895,1451 	"/>
	<polygon id="NH05-26_x5F_06" class="st0" points="1932.9,1446 1906.4,1463.4 1895,1451 1895.1,1436.8 1866.8,1413.4 1861.4,1416.8 
		1854.6,1411 1853.2,1410.1 1870.4,1399.7 1873.1,1402.1 1884,1395.6 1916.3,1422.6 1916,1426.1 1918.6,1428.3 1918.1,1431.3 	"/>
	<polygon id="NH05-27_x5F_04" class="st0" points="1906.4,1381.7 1960.3,1431 1989.1,1412.2 1976.6,1400 1979.3,1397.4 
		1979.4,1389.8 1944.6,1357.4 1939.7,1360.9 1936.3,1359 1919.1,1369.5 1918.6,1373.2 	"/>
	<polygon id="NH05-27_x5F_03" class="st0" points="2006.7,1399.6 1989.1,1412.2 1976.6,1400 1979.3,1397.4 1979.4,1389.8 
		1944.6,1357.4 1939.7,1360.9 1937.1,1359.4 1948.6,1351.9 1955.7,1358 1958.3,1356.6 1962.8,1360.6 1972.9,1353.5 1993.2,1374.6 
		1992.8,1386.3 	"/>
	<polygon id="NH05-27_x5F_02" class="st0" points="2024.6,1387.9 2006.7,1399.6 1992.8,1386.3 1993.2,1374.6 1972.9,1353.5 
		1962.8,1360.6 1958.3,1356.6 1958.3,1346.4 1970.4,1338.3 1978,1343.7 1985.4,1339 2013.7,1362.4 2013.4,1376.8 	"/>
	<polygon id="NH05-27_x5F_01" class="st0" points="2050.7,1370.7 2024.6,1387.9 2013.4,1376.8 2013.7,1362.4 1985.4,1339 
		1978,1343.7 1970.4,1338.3 1987,1327.1 1990.6,1329.4 2000,1322.8 2033.2,1349.7 2033.2,1351.9 2036.2,1354.4 2036,1358.6 	"/>
	<polygon id="NH05-28_x5F_04" class="st0" points="2080.3,1352.6 2050.7,1370.7 2036,1358.6 2036.2,1354.4 2033.2,1351.9 
		2033.2,1349.7 2000,1322.8 2010.6,1316.9 2010.6,1312.2 2026.8,1302.3 2029.5,1304.3 2035.6,1300.5 2068,1327.3 2067.9,1329.2 
		2071,1332 2070.6,1339.4 2067.9,1341.8 	"/>
	<polygon id="NH05-28_x5F_03" class="st0" points="2097.1,1340.9 2080.3,1352.6 2067.9,1341.8 2070.6,1339.4 2071,1332 
		2067.9,1329.2 2068,1327.3 2035.6,1300.5 2029.5,1304.3 2026.8,1302.3 2040.2,1294.4 2046.7,1300.5 2049.1,1298.6 2053.8,1303 
		2062.8,1296 2083.6,1316 2083.4,1325.4 2082.1,1326.6 	"/>
	<polygon id="NH05-28_x5F_02" class="st0" points="2114.8,1330 2097.1,1340.9 2082.1,1326.6 2083.4,1325.4 2083.6,1316 2062.8,1296 
		2053.8,1303 2049.1,1298.6 2046.7,1300.5 2048.3,1289.1 2060.2,1280.9 2068.3,1287 2074.8,1282.7 2104,1305.1 2103.6,1319.4 	"/>
	<polygon id="NH05-28_x5F_01" class="st0" points="2138.6,1313.7 2114.8,1330 2103.6,1319.4 2104,1305.1 2074.8,1282.7 2068.3,1287 
		2060.2,1280.9 2075.9,1270.6 2079.1,1272.6 2090,1266 2122.6,1292.2 2122.8,1294.4 2126.1,1296.9 2122.6,1300.5 	"/>
	<polygon id="NH05-2_x5F_06" class="st0" points="1484,1184.2 1458.1,1161.1 1470.3,1152 1470.1,1142.6 1502.7,1119.3 
		1523.6,1134.7 1523.6,1143.3 1531.6,1151 	"/>
	<polygon id="NH05-2_x5F_05" class="st0" points="1441.5,1147.3 1458.1,1161.1 1470.3,1152 1470.1,1142.6 1501.8,1119.9 
		1494.9,1114.6 1492.3,1116.9 1490.4,1116 1487.7,1118.6 1479,1110.3 1459,1125.2 1458.1,1135 	"/>
	<polygon id="NH05-2_x5F_04" class="st0" points="1426.1,1133.4 1441.5,1147.3 1458.1,1135 1459,1125.2 1479,1110.3 1487.7,1118.6 
		1488.8,1117.5 1488.8,1106.3 1476.6,1096.6 1471.7,1100.2 1465.5,1095 1440.8,1112.2 1440.6,1121.1 1439.1,1122.3 1439.1,1124.9 	
		"/>
	<polygon id="NH05-2_x5F_03" class="st0" points="1409.8,1121.1 1426.1,1133.4 1439.1,1124.9 1439.1,1122.3 1440.6,1121.1 
		1440.8,1112.2 1465.5,1095 1471.7,1100.2 1476.6,1096.6 1463.7,1087.3 1460,1090.4 1458.1,1088.6 1455.1,1091.9 1447,1083.7 
		1426.1,1098.4 1425.2,1109.2 	"/>
	<polygon id="NH05-2_x5F_02" class="st0" points="1394.4,1106.8 1409.8,1121.1 1425.2,1109.2 1426.1,1098.4 1447,1083.7 
		1455.1,1091.9 1456.6,1090.3 1456.6,1079.9 1445.7,1071.6 1441.5,1074.4 1435.6,1069.4 1408,1086.8 1407.7,1093.5 1406.1,1095 
		1406,1098.6 	"/>
	<polygon id="NH05-2_x5F_01" class="st0" points="1372,1089.7 1394.4,1106.8 1406,1098.6 1406.1,1095 1407.7,1093.5 1408,1086.8 
		1435.6,1069.4 1441.5,1074.4 1445.7,1071.6 1420.8,1051.7 1391.7,1069.4 1391.4,1071.4 1387.4,1074.1 1387.4,1076.9 	"/>
	<polygon id="NH05-1_x5F_01" class="st0" points="1405.1,1051.7 1372,1089.7 1341.4,1075.8 1349.4,1064.7 1349.6,1055.6 
		1373.3,1027.6 1395.8,1038 1396,1047.6 	"/>
	<polygon id="NH05-1_x5F_02" class="st0" points="1321.5,1066.4 1341.4,1075.8 1349.4,1064.7 1349.6,1055.6 1370.1,1031.3 
		1361.2,1025.8 1358.6,1028.5 1348.5,1023.3 1333.4,1041.2 1332.3,1052.5 	"/>
	<polygon id="NH05-1_x5F_03" class="st0" points="1301.4,1057.1 1321.5,1066.4 1332.3,1052.5 1333.4,1041.2 1348.5,1023.3 
		1353.4,1025.8 1353.4,1019 1339,1011.7 1336,1015.4 1331.1,1012.9 1310.6,1035.7 1310.4,1046 	"/>
	<polygon id="NH05-1_x5F_04" class="st0" points="1274.1,1042.4 1301.4,1057.1 1310.4,1046 1310.6,1035.7 1331.1,1012.9 
		1334.8,1014.8 1334.8,1008.9 1312.5,997.7 1290.3,1021.7 1290.1,1023.3 	"/>
	<polygon id="NH05-7_x5F_01" class="st0" points="1611.4,1083.7 1562.8,1117.7 1539.3,1098 1539.3,1090.4 1545.7,1086.1 
		1545.8,1078.1 1578.3,1058 	"/>
	<polygon id="NH05-7_x5F_02" class="st0" points="1525.2,1087.1 1539.3,1098 1539.3,1090.4 1545.7,1086.1 1545.8,1078.1 
		1578.3,1058 1568.8,1051.7 1564.6,1053.7 1558.8,1048 1538.6,1059.7 1537.7,1074.4 1525.8,1082.4 	"/>
	<polygon id="NH05-7_x5F_03" class="st0" points="1509.5,1074.1 1525.2,1087.1 1525.8,1082.4 1537.7,1074.4 1538.6,1059.7 
		1558.8,1048 1564.6,1053.7 1568.8,1051.7 1552.6,1038.8 1549.5,1040.6 1542.3,1034.6 1522.8,1046.7 1521.5,1060.8 1510.1,1069.4 	
		"/>
	<polygon id="NH05-7_x5F_04" class="st0" points="1490.3,1059.1 1509.5,1074.1 1510.1,1069.4 1521.5,1060.8 1522.8,1046.7 
		1542.3,1034.6 1549.5,1040.6 1552.6,1038.8 1536.6,1026 1533.5,1028 1527,1021.2 1500.8,1039.1 1500.6,1046.4 1490.3,1053.1 	"/>
	<polygon id="NH05-7_x5F_05" class="st0" points="1465.4,1041.5 1490.3,1059.1 1490.3,1053.1 1500.6,1046.4 1500.8,1039.1 
		1527,1021.2 1533.5,1028 1536.6,1026 1529.2,1020 1529.2,1018.7 1509.5,1004.3 1478.7,1026 1478.6,1030.1 1462.7,1039.6 	"/>
	<polygon id="NH05-8_x5F_05" class="st0" points="1496.6,998.3 1460.2,1036.8 1432.2,1021.2 1432.2,1014 1438,1010.1 1438.4,1000.8 
		1462.7,977.4 1483.1,988.3 1483.4,990.7 	"/>
	<polygon id="NH05-8_x5F_04" class="st0" points="1443.7,968.2 1425.2,984.8 1424.2,998.8 1415.3,1006.3 1415.3,1011.7 
		1432.2,1021.2 1432.2,1014 1438,1010.1 1438.4,1000.8 1462.7,977.4 	"/>
	<polygon id="NH05-8_x5F_03" class="st0" points="1424.8,958.6 1443.7,968.2 1425.2,984.8 1424.2,998.8 1415.3,1006.3 
		1415.3,1011.7 1398.8,1003.4 1398.8,997.7 1406.6,990.6 1407.1,974.1 	"/>
	<polygon id="NH05-8_x5F_02" class="st0" points="1406.6,949.4 1424.8,958.6 1407.1,974.1 1406.6,990.6 1398.8,997.7 1398.8,1003.4 
		1376.6,992.5 1376.6,983.6 1383.9,978.4 1384.2,970.6 	"/>
	<polygon id="NH05-8_x5F_01" class="st0" points="1348,977.4 1376.6,992.5 1376.6,983.6 1383.9,978.4 1384.2,970.6 1406.6,949.4 
		1406.6,947.4 1394.4,941.4 1392.6,943.6 1382.8,938.4 1373.3,947.7 1373.3,950.4 1359.9,961.2 1359.9,963.4 	"/>
	<polygon id="NH05-23_x5F_06" class="st0" points="1688.8,1043.6 1638.6,1073 1615.3,1051.4 1627.3,1043.6 1627.4,1034.6 
		1660.5,1013.4 1679.1,1028.8 1679.6,1036 	"/>
	<polygon id="NH05-23_x5F_05" class="st0" points="1599.6,1038.1 1615.3,1051.4 1627.3,1043.6 1627.4,1034.6 1659.5,1014 
		1653.8,1009.4 1650.8,1011.1 1648.8,1009.4 1643.5,1012.5 1637.1,1005.6 1615.3,1018.8 1615.3,1027.3 	"/>
	<polygon id="NH05-23_x5F_04" class="st0" points="1585,1024.4 1599.6,1038.1 1615.3,1027.3 1615.3,1018.8 1637.1,1005.6 
		1643.5,1012.5 1645.7,1011.2 1645.7,1002.1 1635.1,992.4 1630.8,994.7 1625.3,989.5 1599.6,1004.3 1599.6,1012.8 1597,1013.8 
		1597,1016.5 	"/>
	<polygon id="NH05-23_x5F_03" class="st0" points="1569.5,1010.9 1585,1024.4 1597,1016.5 1597,1013.8 1599.6,1012.8 1599.6,1004.3 
		1625.3,989.5 1630.8,994.7 1635.1,992.4 1623.6,982.5 1619.8,984.8 1618.3,983 1614.3,985.7 1606.6,978.9 1586.3,991.3 
		1585.8,1001 	"/>
	<polygon id="NH05-23_x5F_02" class="st0" points="1554.6,997.9 1569.5,1010.9 1585.8,1001 1586.3,991.3 1606.6,978.9 1614.3,985.7 
		1616.3,984.4 1616.3,975.8 1605.7,967.5 1601.4,969.6 1596.1,964.5 1567.3,980.8 1567,986.6 1565.9,987.7 1565.7,990.6 	"/>
	<polygon id="NH05-23_x5F_01" class="st0" points="1534.1,979.6 1554.6,997.9 1565.7,990.6 1565.9,987.7 1567,986.6 1567.3,980.8 
		1596.1,964.5 1600.1,968.4 1600.1,961 1582.8,947 1554,961.7 1553.7,964 1549.3,966 1551.6,968.8 	"/>
	<polygon id="NH05-22_x5F_01" class="st0" points="1563.6,941.5 1532.1,978.9 1500.5,965.6 1509.7,955.4 1509.9,945.3 1531.5,919.3 
		1554.6,929.9 1554.6,936.5 	"/>
	<polygon id="NH05-22_x5F_02" class="st0" points="1481.8,956.5 1500.5,965.6 1509.7,955.4 1509.9,945.3 1529.4,921.8 1520,917.7 
		1517.1,920.3 1507.8,915.4 1493.1,932.1 1493.1,943.6 	"/>
	<polygon id="NH05-22_x5F_03" class="st0" points="1462.7,947.6 1481.8,956.5 1493.1,943.6 1493.1,932.1 1507.8,915.4 1511.7,917.4 
		1511.7,912.7 1495.7,905.8 1494.4,907 1490.4,904.7 1475,922.7 1473.5,934.9 	"/>
	<polygon id="NH05-22_x5F_04" class="st0" points="1443.7,938.4 1462.7,947.6 1473.5,934.9 1475,922.7 1490.4,904.7 1494.4,907 
		1495.7,905.8 1483.4,899.8 1482.6,901 1480.6,900.7 1479.4,902.1 1469.7,897.6 1454.9,914.3 1454.6,925.4 	"/>
	<polygon id="NH05-22_x5F_05" class="st0" points="1424.8,929.7 1443.7,938.4 1454.6,925.4 1454.9,914.3 1469.7,897.6 1473.8,899.5 
		1473.8,894.5 1462,889.1 1460.3,890.8 1453.7,888 1433.3,908.9 1433.1,920.4 	"/>
	<polygon id="NH05-22_x5F_06" class="st0" points="1455.7,886.1 1455.5,883.7 1434.3,875.4 1412,897.6 1411.9,900.3 1396.8,916.8 
		1424.8,929.7 1433.1,920.4 1433.3,908.9 1453.7,888 1456.2,889.1 	"/>
	<polygon id="NH05-36_x5F_06" class="st0" points="1418.3,792.6 1397.8,833.7 1367.7,825.7 1367.7,817.7 1371.4,813.1 1371.3,804.6 
		1384.3,781.1 1406.7,787.1 1406.8,789.8 	"/>
	<polygon id="NH05-36_x5F_05" class="st0" points="1352.6,821.2 1367.7,825.7 1367.7,817.7 1371.4,813.1 1371.3,804.6 1384.3,781.1 
		1362.7,776.8 1355,792 1354,810 1348.6,820 	"/>
	<polygon id="NH05-36_x5F_04" class="st0" points="1342.6,771 1362.7,776.8 1355,792 1354,810 1348.6,820 1327.7,816.2 
		1327.7,808.3 1331.9,800.3 1331.9,793.1 	"/>
	<polygon id="NH05-36_x5F_03" class="st0" points="1323.4,766.3 1342.6,771 1331.9,793.1 1331.9,800.3 1327.7,808.3 1327.7,817.1 
		1308.3,810.8 1313.7,798.7 1315.4,781.1 	"/>
	<polygon id="NH05-36_x5F_02" class="st0" points="1303.7,760.6 1323.4,766.3 1315.4,781.1 1313.7,798.7 1308.3,810.8 1287.4,805.4 
		1287.4,797.8 1291.3,791 1291,783.3 	"/>
	<polygon id="NH05-36_x5F_01" class="st0" points="1280.6,754.4 1303.7,760.6 1291,783.3 1291.3,791 1287.4,797.8 1287.4,805.4 
		1258.4,798 	"/>
	<polygon id="NH05-53_x5F_04" class="st0" points="1211,972.8 1194.4,1016.5 1161.1,1010 1165.2,998.4 1165.2,987.4 1176.6,956.8 
		1201.1,961.4 1201.4,971.3 	"/>
	<polygon id="NH05-53_x5F_03" class="st0" points="1139.4,1005.8 1161.1,1010 1165.2,998.4 1165.2,987.4 1175.2,960.6 1162.3,958.1 
		1161.1,959.9 1151.4,958.8 1144.3,978.6 1144.5,993.2 	"/>
	<polygon id="NH05-53_x5F_02" class="st0" points="1116.9,1001.7 1139.4,1005.8 1144.5,993.2 1144.3,978.6 1151.4,958.8 
		1152.3,955.1 1140.8,953.8 1132.5,953.2 1122,975 1121.8,988.8 	"/>
	<polygon id="NH05-53_x5F_01" class="st0" points="1108.1,944 1105.4,951.4 1102.5,950.7 1084.8,995.5 1116.9,1001.7 1121.8,988.8 
		1122,975 1132.5,953.2 1134.1,953.3 1134.1,948.7 	"/>
	<polygon id="NH05-9_x5F_01" class="st0" points="1250.3,897.2 1235.1,941.7 1202,936.3 1202,927.7 1204.6,922.8 1205.1,911.3 
		1215.7,885.7 1239.1,890.8 1239.3,895 	"/>
	<polygon id="NH05-9_x5F_02" class="st0" points="1193.7,883.3 1186,900.8 1186,917.7 1182.7,925.8 1182.7,932 1202,936.3 
		1202,927.7 1204.6,922.8 1205.1,911.3 1215.7,885.7 	"/>
	<polygon id="NH05-9_x5F_03" class="st0" points="1172,879.9 1164.6,897.2 1164.6,913.7 1162.3,926.7 1182.7,932 1182.7,925.8 
		1186,917.7 1186,900.8 1193.7,883.3 	"/>
	<polygon id="NH05-9_x5F_04" class="st0" points="1151.4,874.3 1140.5,901.8 1140.5,909.8 1137.8,916.6 1137.8,922.8 1162.3,926.7 
		1164.6,913.7 1164.6,897.2 1172,879.9 	"/>
	<polygon id="NH05-9_x5F_05" class="st0" points="1128.8,869.4 1126.1,872.5 1122.8,872.5 1107,913.7 1107,918.4 1137.8,922.8 
		1137.8,916.6 1140.5,909.8 1140.5,901.8 1151.4,874.3 	"/>
	<polygon id="NH05-21_x5F_06" class="st0" points="1277.2,836.8 1264.9,877.5 1232.9,872.6 1236,860.6 1236,850.1 1244.5,821.4 
		1268.6,824.9 1269.2,835.9 	"/>
	<polygon id="NH05-21_x5F_05" class="st0" points="1221.8,823.7 1243.3,825.2 1236,850.1 1236,860.6 1232.9,872.6 1211.9,868.6 
		1215.7,856.8 1216.5,841.1 	"/>
	<polygon id="NH05-21_x5F_04" class="st0" points="1201.2,819.6 1195.4,838.1 1194.6,852.9 1189.7,865.8 1211.9,868.6 1215.7,856.8 
		1216.5,841.1 1221.8,823.7 1211.9,822.6 1211.9,820.6 	"/>
	<polygon id="NH05-21_x5F_03" class="st0" points="1179.3,817.4 1173.4,836.2 1173.4,850.6 1168.6,862.7 1189.7,865.8 1194.6,852.9 
		1195.4,838.1 1201.2,819.6 1189.7,818.1 	"/>
	<polygon id="NH05-21_x5F_02" class="st0" points="1147.6,859 1168.6,862.7 1173.4,850.6 1173.4,836.2 1179.3,817.4 1170.5,816.2 
		1169.4,813.8 1159.6,812.6 1151.4,833.1 1151.4,847.1 	"/>
	<polygon id="NH05-21_x5F_01" class="st0" points="1116.6,853.7 1147.6,859 1151.4,847.1 1151.4,833.1 1159.6,812.6 1160.9,812.8 
		1160.9,807.3 1135.7,805.4 1133.1,813.5 1129.2,813.4 	"/>
	<polygon id="NH05-52_x5F_01" class="st0" points="1042.6,948.6 1043.9,991.9 1009.8,992.8 1008.8,937.5 1012.6,937.5 1012.6,936.3 
		1018.8,936.3 1019,938.1 1034.3,938 1035,948.2 	"/>
	<polygon id="NH05-52_x5F_02" class="st0" points="987.6,993.7 1009.8,992.8 1008.9,941.7 997.4,941.7 990.9,941.7 990.8,945.9 
		987.6,946 	"/>
	<polygon id="NH05-52_x5F_03" class="st0" points="964.7,994.6 987.6,993.7 987.6,946 982.4,946 982.4,941.7 964.7,941.7 	"/>
	<polygon id="NH05-52_x5F_04" class="st0" points="937.8,941 937.8,953 937.8,995.4 964.7,994.6 964.7,941.7 964.7,938.5 
		959.1,938.5 959.1,937.7 952.8,937.7 952.8,940.8 	"/>
	<polygon id="NH05-10_x5F_01" class="st0" points="1056.3,869.4 1057.1,913.7 1024.5,913.7 1024.5,865.8 1036.7,865.8 1037.1,867.6 
		1047.8,867.4 1047.6,869.4 	"/>
	<polygon id="NH05-10_x5F_02" class="st0" points="1004.7,915.1 1006,868.3 1024.5,868.3 1024.5,913.7 	"/>
	<polygon id="NH05-10_x5F_03" class="st0" points="979.6,868.3 979.6,916.3 1004.7,915.1 1006,868.3 	"/>
	<polygon id="NH05-10_x5F_04" class="st0" points="956.5,916.3 979.6,916.3 979.6,868.3 964.7,868.3 964.7,870.3 957.8,870.7 	"/>
	<polygon id="NH05-10_x5F_05" class="st0" points="925.8,872.3 925.8,918.3 956.5,916.3 957.8,865.8 943.8,865.8 943.6,869.4 
		931.6,869.4 931.6,871.6 	"/>
	<polygon id="NH05-11_x5F_01" class="st0" points="900.5,873.8 925.8,918.3 892.5,925.6 892.5,918.3 886.9,910.5 886.9,901.4 
		874.7,881.4 872.5,882 872.5,877.6 886,873.8 888,876.7 	"/>
	<polygon id="NH05-11_x5F_02" class="st0" points="853.8,887.1 863.7,902.6 865,919.4 874.9,931.7 892.5,925.6 892.5,918.3 
		886.9,910.5 886.9,901.4 874.7,881.4 868.9,883.1 867,882.4 	"/>
	<polygon id="NH05-11_x5F_03" class="st0" points="845.1,922.8 851.1,931.3 851.1,937.7 874.9,931.7 865,919.4 863.7,902.6 
		853.8,887.1 833.1,893.2 845.1,913.1 	"/>
	<polygon id="NH05-11_x5F_04" class="st0" points="813.5,899.7 833.1,893.2 845.1,913.1 845.1,922.8 851.1,931.3 851.1,937.7 
		832.3,942.6 823.4,931.3 822.8,915.3 	"/>
	<polygon id="NH05-11_x5F_05" class="st0" points="792.6,906.3 803,902.1 813.5,899.7 822.8,915.3 823.4,931.3 832.3,942.6 
		808.8,949.8 809,943.6 805,938.4 805.1,926.5 	"/>
	<polygon id="NH05-11_x5F_06" class="st0" points="768.1,912.4 768.1,913.8 756.9,917.9 781.1,958.7 808.8,949.8 809,943.6 
		805,937.7 805.1,926.5 792.6,906.3 790,902.6 777.8,906.3 777.5,909.7 	"/>
	<polygon id="NH05-20_x5F_01" class="st0" points="1068.8,808 1067.9,849.5 1035.1,849.5 1036.3,795.9 1040.8,795.9 1040.8,794.8 
		1046.3,794.8 1046.4,798.4 1047.9,798.4 1048.3,797.2 1061.1,798 1061.4,807.9 	"/>
	<polygon id="NH05-20_x5F_02" class="st0" points="1013.4,849.5 1035.1,849.5 1036.3,799.2 1019.4,799.2 1019.4,803.1 1014.6,803.1 
			"/>
	<polygon id="NH05-20_x5F_03" class="st0" points="991.4,848.9 1013.4,849.5 1014.6,803.1 1011,803.1 1011.3,799.9 993.8,799.9 
		991.4,826 	"/>
	<polygon id="NH05-20_x5F_04" class="st0" points="959.9,847.9 991.4,848.9 991.4,826 993.8,799.9 993.8,795.4 991.4,795.4 
		991.4,796.9 989.7,796.6 989.2,794.8 983.1,794.8 983.1,798.1 981.7,798 981.8,796.9 968.2,797.4 968,805.4 961.5,805.4 	"/>
	<polygon id="NH05-19_x5F_01" class="st0" points="948,806 959.9,846.3 927.6,850.6 923.9,838 923.9,826.6 917.1,803 915.3,803 
		916,798.1 920.3,798.1 920.3,796.3 925.8,796.3 925.8,798.3 940.5,796.3 942.7,805.8 	"/>
	<polygon id="NH05-19_x5F_02" class="st0" points="906,853.8 927.6,850.6 923.9,838 923.9,826.6 917.1,803 915.3,803 898.4,805.2 
		899.1,808.6 895.9,808.9 901.5,827 902.1,840.3 	"/>
	<polygon id="NH05-19_x5F_03" class="st0" points="884.6,857.5 906,853.8 902.1,840.3 901.5,827 895.9,808.9 890,809.5 889.2,807.3 
		874.6,808.9 881.1,834.1 882,846.4 	"/>
	<polygon id="NH05-19_x5F_04" class="st0" points="856.3,861.5 884.6,857.5 882,846.4 881.1,834.1 874.6,808.9 874.6,804.3 
		863.7,805.5 863.9,808.6 849.2,810.1 850.6,821.9 842.8,823.4 852.3,853.8 	"/>
	<polygon id="NH05-18_x5F_01" class="st0" points="819.7,820.2 840.8,841.2 840.8,844.6 856.3,861.5 830.4,873.8 820.5,862.8 
		819.7,852.8 802.1,832.4 798.1,834.6 798.1,827.9 807.1,823.4 808.9,825.1 	"/>
	<polygon id="NH05-18_x5F_02" class="st0" points="811.1,883.7 830.4,873.8 820.5,862.8 819.7,852.8 802.1,832.4 798.1,834.6 
		781.5,842.3 783,844.9 800.6,858.8 801.5,871.7 	"/>
	<polygon id="NH05-18_x5F_03" class="st0" points="792.6,892.2 811.1,883.7 801.5,871.7 800.6,858.8 783,844.9 781.5,842.3 
		774.8,846 773.1,844.5 765.5,848.9 784.2,871.1 784.3,880.8 	"/>
	<polygon id="NH05-18_x5F_04" class="st0" points="764.6,906.3 792.6,892.2 784.3,880.8 784.2,871.1 765.5,848.9 761.4,844.6 
		752.6,848.8 752.6,852 739.7,857.5 739.7,867.3 732.5,871 	"/>
	<polygon id="NH05-51_x5F_04" class="st0" points="936.5,996.5 915.3,955.6 913.6,955.6 908.5,947.8 895.9,952 894,949.8 
		884.6,952.7 884.6,958 886.3,958.7 899.1,982.5 900.5,994.6 907.1,1006.5 	"/>
	<polygon id="NH05-51_x5F_03" class="st0" points="886,1012.9 907.1,1006.5 900.5,994.6 899.1,982.5 886.3,958.7 884.6,958 
		866,963.6 876.3,986.9 878.9,1000 	"/>
	<polygon id="NH05-51_x5F_02" class="st0" points="858.3,1006.5 865.1,1020 886,1012.9 878.9,1000 876.3,986.9 866,963.6 
		856.3,967.7 855.1,966.6 844.5,970.5 858.7,996.5 	"/>
	<polygon id="NH05-51_x5F_01" class="st0" points="833.1,1029.6 865.1,1020 858.3,1006.5 858.7,996.5 844.5,970.5 841.8,964.6 
		830.4,968.1 830.4,971.1 817.6,974.7 817.6,984.3 810,987.6 	"/>
	<polygon id="NH05-50_x5F_01" class="st0" points="792.6,987.1 830.4,1024.7 833.1,1029.6 806,1044 794.7,1032.9 794.5,1021.8 
		774.9,1000.7 771.1,1002.5 771.1,996 780.3,991.8 783,992.8 	"/>
	<polygon id="NH05-50_x5F_02" class="st0" points="786.3,1055.4 806,1044 794.7,1032.9 794.5,1021.8 774.9,1000.7 771.1,1002.5 
		754.5,1011.1 772.9,1029.6 775.6,1042.3 	"/>
	<polygon id="NH05-50_x5F_03" class="st0" points="767.1,1064.9 786.3,1055.4 775.6,1042.3 772.9,1029.6 754.5,1011.1 746.3,1015.6 
		743.8,1015.6 736,1020 756.9,1043.1 756.9,1054 	"/>
	<polygon id="NH05-50_x5F_04" class="st0" points="701.8,1042 737.1,1079.9 767.1,1064.9 756.9,1054 756.9,1043.1 736,1020 
		732.5,1015.6 729.6,1017.8 727.6,1017.1 723.1,1020 723.1,1022.9 709.8,1029.6 709.6,1038 	"/>
	<polygon id="NH05-12_x5F_01" class="st0" points="781.1,958.7 748.2,920.2 738.1,925.6 736,923.3 723.4,930.6 745.2,951 
		745.5,961.5 753.2,967.1 753.4,972.9 	"/>
	<polygon id="NH05-12_x5F_02" class="st0" points="737.8,981.1 724,970.8 722.6,954.6 707.1,941.2 723.4,930.6 745.2,951 
		745.5,961.5 753.2,967.1 753.4,972.9 	"/>
	<polygon id="NH05-12_x5F_03" class="st0" points="715,992.8 737.8,981.1 724,970.8 722.6,954.6 707.1,941.2 687.6,949.8 
		708.9,971.7 709.4,981.1 714.8,985.8 	"/>
	<polygon id="NH05-12_x5F_04" class="st0" points="698,1000.7 715,992.8 714.8,985.8 709.4,981.1 708.9,971.7 687.6,949.8 
		685.2,947.7 673.2,953.7 673.2,957.4 652.3,968.8 685.5,1005.1 	"/>
	<polygon id="NH05-17_x5F_05" class="st0" points="761.7,908 736.3,921.2 726,909.5 726,900.2 706,879.6 702.6,881.4 702.6,874.6 
		711.3,870.6 712.7,871.7 724,866.3 745.9,885.7 746.6,890.6 761.7,905.4 	"/>
	<polygon id="NH05-17_x5F_04" class="st0" points="716.8,930.6 736.3,921.2 726,909.5 726,900.2 706,879.6 702.6,881.4 685.7,888.6 
		706.1,907.6 706.3,918.6 	"/>
	<polygon id="NH05-17_x5F_03" class="st0" points="698.1,941.2 716.8,930.6 706.3,918.6 706.1,907.6 685.7,888.6 679.1,893.7 
		677.2,892.2 667.6,898.6 686.7,917.9 687.6,928.5 	"/>
	<polygon id="NH05-17_x5F_02" class="st0" points="678.6,949.8 698.1,941.2 687.6,928.5 686.7,917.9 667.6,898.6 662,901.8 
		662.6,905.1 659.3,902 650.3,906.3 670,928.5 670.3,939.1 	"/>
	<polygon id="NH05-17_x5F_01" class="st0" points="616.3,928.5 650.3,964 678.6,949.8 670.3,939.1 670,928.5 650.3,906.3 
		646.6,902.6 643.3,905.1 642.1,904 637.2,906.3 636.6,909.8 625.2,914.9 624.9,923.1 	"/>
	<polygon id="NH05-49_x5F_01" class="st0" points="679.4,1047.7 720,1090.4 692.2,1106.4 680.9,1094.6 680.8,1084.5 659.7,1061.7 
		656.6,1063.6 656.6,1056.9 665.2,1052.5 667.6,1053.7 	"/>
	<polygon id="NH05-49_x5F_02" class="st0" points="672,1117.5 692.2,1106.4 680.9,1094.6 680.8,1084.5 659.7,1061.7 656.6,1063.6 
		650.1,1067 640.8,1072.8 643,1075.3 660.5,1092.3 661.1,1104.9 	"/>
	<polygon id="NH05-49_x5F_03" class="st0" points="620.3,1082.1 641.5,1106.4 641.5,1116.9 652.5,1128.5 672,1117.5 661.1,1104.9 
		660.5,1092.3 640.8,1072.8 632.3,1078 630.1,1076 623.9,1079.9 	"/>
	<polygon id="NH05-49_x5F_04" class="st0" points="584.9,1104 620.9,1144.3 652.5,1128.5 641.5,1116.9 641.5,1106.4 620.3,1082.1 
		616.3,1077.1 607.3,1082 607,1084.8 594.4,1091 594.4,1099.1 	"/>
	<polygon id="NH05-48_x5F_01" class="st0" points="589.5,1160.6 620.9,1144.3 584.9,1104 582.4,1104.9 578.3,1100 566,1106.4 
		563.7,1104.8 554.4,1110.7 554.4,1115.9 556.9,1115.4 579.3,1140.2 579,1148.3 	"/>
	<polygon id="NH05-48_x5F_02" class="st0" points="557.4,1158.1 569.5,1171.6 589.5,1160.6 579,1148.3 579.3,1140.2 556.9,1115.4 
		554.4,1115.9 537.1,1125.1 539.9,1128.5 556.8,1147 	"/>
	<polygon id="NH05-48_x5F_03" class="st0" points="548,1183 569.5,1171.6 557.4,1158.1 556.8,1147 537.1,1125.1 517.4,1135.4 
		538.6,1161.4 538.8,1171.6 	"/>
	<polygon id="NH05-48_x5F_04" class="st0" points="482.1,1158.7 516.3,1199.7 548,1183 538.8,1171.6 538.6,1161.4 517.4,1135.4 
		513.7,1131 504.8,1135.4 504.2,1139.6 491,1146.4 491,1152.9 	"/>
	<polygon id="NH05-47_x5F_01" class="st0" points="483.9,1217.1 516.3,1199.7 482.1,1158.7 477.7,1159.6 472.5,1154 460.6,1161.4 
		458.4,1159.3 448.2,1166.3 448.2,1171.6 451.7,1170.8 473.1,1195.3 473.4,1204 	"/>
	<polygon id="NH05-47_x5F_02" class="st0" points="452.5,1216 463.7,1228.3 483.9,1217.1 473.4,1204 473.1,1195.3 451.7,1170.8 
		448.2,1171.6 432,1180.8 434.8,1184 448.9,1202.4 450.1,1203.7 	"/>
	<polygon id="NH05-47_x5F_03" class="st0" points="441.2,1239.6 463.7,1228.3 452.5,1216 450.1,1203.7 432,1180.8 421.8,1187.1 
		420.3,1185.6 410.3,1191.6 430.4,1217.1 432,1228.3 	"/>
	<polygon id="NH05-47_x5F_04" class="st0" points="375,1214.4 408.8,1256.9 441.2,1239.6 432,1228.3 430.4,1217.1 410.3,1191.6 
		406.4,1187.3 403,1189.4 401.7,1188.6 396.8,1191.9 396.6,1195.6 383.4,1202 383.1,1210.2 	"/>
	<polygon id="NH05-13_x5F_06" class="st0" points="602.7,994.1 636.6,1030.1 607.7,1047 607.3,1042.8 599.9,1034.3 599.9,1025.7 
		577.8,1004.2 590.6,996.9 592,999.1 	"/>
	<polygon id="NH05-13_x5F_05" class="st0" points="578.8,1046 589.7,1057.7 607.7,1047 607.3,1042.8 599.9,1034.3 599.9,1025.7 
		578.8,1005.2 560.2,1015.6 574.7,1030.7 	"/>
	<polygon id="NH05-13_x5F_03" class="st0" points="520.6,1036.3 534,1051 538.3,1067.1 548.3,1079.1 567.4,1069.4 567.4,1062.1 
		560.2,1053.4 560.2,1046.4 540.7,1025 	"/>
	<polygon id="NH05-13_x5F_04_00000093860734067941252760000012211715735479546021_" class="st0" points="560.2,1015.6 540.7,1025 
		560.2,1046.4 560.2,1053.4 567.4,1062.1 567.4,1069.4 589.7,1057.7 578.8,1046 574.7,1030.7 	"/>
	<polygon id="NH05-13_x5F_02" class="st0" points="501.6,1047 520.6,1036.3 534,1051 538.3,1067.1 548.3,1079.1 528.3,1088.7 
		527.8,1082.9 522.9,1077.1 522,1067.6 	"/>
	<polygon id="NH05-13_x5F_01" class="st0" points="465.1,1066.5 501.6,1104.7 528.3,1088.7 527.8,1082.9 522.9,1077.1 522,1067.6 
		501.6,1047 498.3,1042.5 485.4,1050 484.9,1054 477.4,1057.7 477.4,1059.8 	"/>
	<polygon id="NH05-16_x5F_01" class="st0" points="560.2,946.6 598.3,989.6 569.6,1004 560.2,992.8 558.9,982.3 539.1,960.3 
		536,962 536,955.9 545.8,951.1 547.1,952.7 	"/>
	<polygon id="NH05-16_x5F_02" class="st0" points="540.7,1002 550,1013.4 569.6,1004 560.2,992.8 558.9,982.3 539.1,960.3 536,962 
		530,965.6 520.6,970 523.4,972.9 537.6,988.7 	"/>
	<polygon id="NH05-16_x5F_03" class="st0" points="520.6,1012.3 529.8,1023.4 550,1013.4 540.7,1002 537.6,988.7 520.6,970 
		511.8,975.3 510.5,972.9 500,978.7 518,1000 	"/>
	<polygon id="NH05-16_x5F_04" class="st0" points="499.4,1020.6 510.7,1034.5 529.8,1023.4 520.6,1012.3 518,1000 500,978.7 
		489.6,984.7 480.5,990.5 496.7,1008.9 	"/>
	<polygon id="NH05-16_x5F_05" class="st0" points="461.1,999.1 479.8,1020.6 480.5,1031.4 490,1042.5 510.7,1034.5 499.4,1020.6 
		496.7,1008.9 480.5,990.5 471.6,995.1 470.9,992.8 	"/>
	<polygon id="NH05-16_x5F_06" class="st0" points="426.7,1019.4 459.6,1058.9 490,1042.5 480.5,1031.4 479.8,1020.6 461.1,999.1 
		457.1,994.1 447.6,999.1 447.4,1002 434.9,1006.6 435.1,1016.5 	"/>
	<polygon id="NH05-14_x5F_01" class="st0" points="461.1,1066.7 496.7,1106.3 462.8,1122.7 462.8,1116.5 455.3,1108.5 455.3,1099.3 
		436,1079.9 434.1,1080.9 434.1,1076.3 447,1069.4 449.7,1072.5 	"/>
	<polygon id="NH05-14_x5F_02" class="st0" points="415.9,1089.8 430,1105.7 431.4,1122 441.7,1133.5 462.8,1122.7 462.8,1116.5 
		455.3,1108.5 455.3,1099.3 436,1079.9 434.1,1080.9 	"/>
	<polygon id="NH05-14_x5F_03" class="st0" points="422.7,1143.5 441.7,1133.5 431.4,1122 430,1105.7 415.9,1089.8 394.4,1100 
		411.7,1120.3 412.9,1129.7 421.5,1138 	"/>
	<polygon id="NH05-14_x5F_04" class="st0" points="374.4,1111 387.3,1126.4 391.3,1142.3 401.1,1154 422.7,1143.5 421.5,1138 
		412.9,1129.7 411.7,1120.3 394.4,1100 	"/>
	<polygon id="NH05-14_x5F_05" class="st0" points="353.5,1121.8 374.4,1111 387.3,1126.4 391.3,1142.3 401.1,1154 380,1165.4 
		380,1159.9 374.4,1154 373.5,1143.5 	"/>
	<path id="NH05-14_x5F_06" class="st0" d="M317.4,1141.1l30.4,38.2c0,0,3,1.8,16-4.9l16.3-9v-5.5l-5.6-5.9l-0.9-10.5l-20-21.7
		l-3.4-3.6l-12.1,6.8l-0.4,3.7L317.4,1141.1z"/>
	<polygon id="NH05-15_x5F_06" class="st0" points="417.4,1017.4 456.2,1060.8 426.7,1076 416.6,1064 415.9,1053.1 396.2,1031 
		393.4,1032.8 394.4,1027 402.7,1022 404.2,1023.4 	"/>
	<polygon id="NH05-15_x5F_05" class="st0" points="396,1074.7 406,1086.3 426.7,1076 416.6,1064 415.9,1053.1 396.2,1031 
		393.4,1032.8 386,1036.3 377.3,1041.1 380,1043.6 393.4,1060.5 	"/>
	<polygon id="NH05-15_x5F_04" class="st0" points="384.6,1096 406,1086.3 396,1074.7 393.4,1060.5 380,1043.6 377.3,1041.1 
		366.7,1046.7 365.5,1044.8 354.8,1050.6 372.2,1072.2 375.1,1085.5 	"/>
	<polygon id="NH05-15_x5F_03" class="st0" points="363.6,1106.7 384.6,1096 375.1,1085.5 372.2,1072.2 354.8,1050.6 335.1,1061.4 
		337.7,1064.6 351.9,1082.6 352.6,1091.4 	"/>
	<polygon id="NH05-15_x5F_02" class="st0" points="333.8,1105.5 342.8,1116.7 363.6,1106.7 352.6,1091.4 351.9,1082.6 335.1,1061.4 
		325.2,1066.7 324,1065.7 314,1071.3 332,1094.1 	"/>
	<path id="NH05-15_x5F_01" class="st0" d="M281.5,1094.7l29.5,37.5l31.9-15.5l-9-11.1l-1.8-11.4l-18.1-22.8l-3.7-4.6l-9.9,4.9
		l-0.1,2.4l-13.5,6.8l0.4,8.2C287.1,1089,283,1090.7,281.5,1094.7z"/>
	<polygon id="NH05-46_x5F_06" class="st0" points="338.7,1276.2 273.5,1309.2 255.7,1283.4 272.2,1276.2 320,1248.3 	"/>
	<polygon id="NH05-46_x5F_05" class="st0" points="244.9,1268.3 255.7,1283.4 272.2,1276.2 320,1248.3 308.6,1233.2 	"/>
	<polygon id="NH05-46_x5F_04" class="st0" points="298.3,1218.1 252,1239 249.2,1245.2 233.8,1252.6 244.9,1268.3 308.6,1233.2 	"/>
	<polygon id="NH05-46_x5F_03" class="st0" points="223.1,1237.7 233.8,1252.6 249.2,1245.2 252,1239 298.3,1218.1 287,1204.5 
		242.1,1228.6 	"/>
	<polygon id="NH05-46_x5F_02" class="st0" points="212.9,1223.4 223.1,1237.7 242.1,1228.6 287,1204.5 276.8,1189.8 232.5,1209.7 
		227.6,1215.7 	"/>
	<polygon id="NH05-46_x5F_01" class="st0" points="198.8,1203.1 212.9,1223.4 227.6,1215.7 232.5,1209.7 276.8,1189.8 262.6,1170.6 
		258.6,1173.2 253.5,1167.1 241.8,1173.1 241.1,1174.7 233.2,1179.5 230.7,1177.7 216.3,1184.2 214,1195.3 	"/>
	<polygon id="NH05-45_x5F_05" class="st0" points="251.6,1156.2 187.6,1187.7 171.1,1164.2 234.1,1130.6 243.4,1143 244.3,1148 	"/>
	<polygon id="NH05-45_x5F_04" class="st0" points="160,1148.9 171.1,1164.2 234.1,1130.6 222.6,1118.3 211.4,1120.5 	"/>
	<polygon id="NH05-45_x5F_03" class="st0" points="150.4,1135.4 160,1148.9 211.4,1120.5 222.6,1118.3 221.8,1112.9 212.2,1102.3 
		201.4,1106.4 167.9,1121.8 164,1127.9 	"/>
	<polygon id="NH05-45_x5F_02" class="st0" points="140.8,1121.5 150.4,1135.4 164,1127.9 167.9,1121.8 201.4,1106.4 212.2,1102.3 
		202.8,1089 157.8,1107.4 154.6,1112.9 	"/>
	<polygon id="NH05-45_x5F_01" class="st0" points="127.3,1102.3 140.8,1121.5 154.6,1112.9 157.8,1107.4 202.8,1089 189.7,1073.1 
		185.1,1074.1 180.9,1068.2 168.6,1073.8 166.8,1075.7 158.4,1079 156,1077.7 143.3,1084.5 143.4,1094 	"/>
	<path id="NH05-44_x5F_04" class="st0" d="M214.8,1028.3l30.1,38.4c0,0,4,0.7,15.9-5.3l13.8-8.6l-0.4-6.1l-5.8-5.6l-1-12.7L248,1006
		l-13.8,6.7v3.7l-8.4,4.1l0.1,1.5L214.8,1028.3z"/>
	<polygon id="NH05-44_x5F_03" class="st0" points="270.8,998.6 250.6,1008.9 267.3,1028.3 268.3,1041.1 274.1,1046.7 274.6,1052.8 
		295.7,1041.1 284.6,1028.8 283.6,1014.6 	"/>
	<polygon id="NH05-44_x5F_02" class="st0" points="290.4,990 270.8,998.6 283.6,1014.6 284.6,1028.8 295.7,1041.1 316.2,1031 
		316.2,1025.7 308.5,1017.4 308,1009.2 	"/>
	<polygon id="NH05-44_x5F_01" class="st0" points="347.7,1017.4 316.2,1031 316.2,1025.7 308.5,1017.4 308,1009.2 290.4,990 
		288.3,990.9 288.3,986.7 301.4,980.6 304.3,983.4 314,978.3 315.3,979.3 318,978.8 347.7,1014.6 	"/>
	<polygon id="NH05-43_x5F_04" class="st0" points="379.3,1001.7 347.7,1017.4 347.7,1014.6 318,978.8 328.9,973.1 329.1,970.6 
		338.4,966.7 338.4,963.6 350.8,957.7 353.4,960 354.7,959.4 372.5,980.8 374,990.5 379.3,995.6 	"/>
	<polygon id="NH05-43_x5F_03" class="st0" points="373.4,950.1 386.4,964.9 388.2,981.1 399.4,991.9 379.3,1001.7 379.3,995.6 
		374,990.5 372.5,980.8 354.7,959.4 	"/>
	<polygon id="NH05-43_x5F_02" class="st0" points="419.4,982.7 399.4,991.9 388.2,981.1 386.4,964.9 373.4,950.1 391.9,941.2 
		410.3,960.3 412.5,970 419.4,977.1 	"/>
	<polygon id="NH05-43_x5F_01" class="st0" points="416.5,929.2 405.4,934.7 403.1,932 390.8,938 390.8,941.7 391.9,941.2 
		410.3,960.3 412.5,970 419.4,977.1 419.4,982.7 447.8,968.4 447.8,964.6 	"/>
	<polygon id="NH05-42_x5F_04" class="st0" points="418.3,931.2 431.3,924.9 431.3,923.3 439.7,919.4 439.7,916.3 451.6,910.1 
		474.4,932.3 475.1,943.3 480.5,948.2 480.5,954.4 461.1,963.7 447.8,968.4 447.8,964.6 	"/>
	<polygon id="NH05-42_x5F_03" class="st0" points="473.8,903.7 487.9,918.3 489.8,933.3 500,944 480.5,954.4 480.5,948.2 
		475.1,943.3 474.4,932.3 454.3,912.7 	"/>
	<polygon id="NH05-42_x5F_02" class="st0" points="518.4,934.6 500,944 489.8,933.3 487.9,918.3 473.8,903.7 491.4,894.1 
		510.3,913.2 512.2,923.4 518.4,929.1 	"/>
	<polygon id="NH05-42_x5F_01" class="st0" points="547.6,922.7 518.4,934.6 518.4,929.1 512.2,923.4 510.3,913.2 491.4,894.1 
		489.9,894.9 490.6,891.6 502.6,885.8 505.2,888.5 515.7,883.3 547.6,919.1 	"/>
	<polygon id="NH05-41_x5F_06" class="st0" points="532.3,876 564.6,913.1 592.6,899.4 592.6,892 587.9,886.3 586,876 565.1,855.3 
		553.2,860.9 552.9,863.7 	"/>
	<polygon id="NH05-41_x5F_05" class="st0" points="600.2,863 601.8,878.1 611.6,890.1 592.6,899.4 592.6,892 587.9,886.3 586,876 
		567.7,857.9 586.1,849.2 	"/>
	<polygon id="NH05-41_x5F_04" class="st0" points="630.6,880.6 611.6,890.1 601.8,878.1 600.2,863 586.1,849.2 604.6,840.6 
		621.5,857.4 622.7,865.4 630.6,874.3 	"/>
	<polygon id="NH05-41_x5F_03" class="st0" points="637.2,844.6 623.7,831.4 604.6,840.6 621.5,857.4 622.7,865.4 630.6,874.3 
		630.6,880.6 644.8,872.9 644.8,867.3 640,860.8 	"/>
	<polygon id="NH05-41_x5F_02" class="st0" points="667.6,862.4 644.8,872.9 644.8,867.3 640,860.8 637.2,844.6 623.7,831.4 
		640.5,822.7 661.2,842.3 662.1,851 667.6,856 	"/>
	<polygon id="NH05-41_x5F_01" class="st0" points="696.2,849.8 667.6,862.4 667.6,856 662.1,851 661.2,842.3 640.5,822.7 
		640.5,820.2 652.2,814.4 654.8,817.5 664.5,812.5 673.5,821.5 673.7,823.6 696.2,847 	"/>
	<polygon id="NH05-40_x5F_04" class="st0" points="724.5,834.8 696.2,849.8 696.2,847 673.7,823.6 673.5,821.5 664.5,812.5 
		677.7,806.3 677.8,804.3 685.7,801.1 685.8,798 697.5,792 718.7,814.1 720,824 724.5,828.3 	"/>
	<polygon id="NH05-40_x5F_03" class="st0" points="730.8,800.2 718,786.7 700.2,794.8 718.7,814.1 720,824 724.5,828.3 724.5,834.8 
		739.6,826.8 739.6,821.8 733.5,815.3 	"/>
	<polygon id="NH05-40_x5F_02" class="st0" points="761.7,818.6 739.6,826.8 739.6,821.8 733.5,815.3 730.8,800.2 718,786.7 
		734.6,778.6 753.1,795.4 754.3,806.4 761.7,811.4 	"/>
	<polygon id="NH05-40_x5F_01" class="st0" points="757.1,768.9 765.8,776.6 765.8,779.3 777.2,789.1 777.2,792 791.4,803 
		791.4,805.5 761.7,818.6 761.7,811.4 754.3,806.4 753.1,795.4 734.6,778.6 734.6,775.4 745.8,770.4 747.4,772.8 	"/>
	<polygon id="NH05-39_x5F_04" class="st0" points="776.5,763.4 794.8,804.3 823.9,795.4 823.9,789.1 821.1,783 820.8,771.9 
		808.9,749.2 796.5,752 796.5,755.1 787.1,757.7 787,759.9 	"/>
	<polygon id="NH05-39_x5F_03" class="st0" points="830.7,747.1 838.1,762.1 839.1,778.6 844.6,790.3 823.9,795.4 823.9,789.1 
		821.1,783 820.8,771.9 810.6,752.4 	"/>
	<polygon id="NH05-39_x5F_02" class="st0" points="865.7,785.2 844.6,790.3 839.1,778.6 838.1,762.1 830.7,747.1 842.8,743.3 
		850.1,742.6 860.3,762.6 861.2,773.7 865.7,778.6 	"/>
	<polygon id="NH05-39_x5F_01" class="st0" points="849.7,739 862.1,736.3 863,738.3 873.4,736.3 874.3,737.7 877.2,737.7 
		897.1,778.4 865.7,785.2 865.7,778.6 861.2,773.7 860.3,762.6 850.1,742.6 	"/>
	<polygon id="NH05-38_x5F_01" class="st0" points="903.1,735.4 902.3,778 934,776.8 934,728 920,728 919.9,730.3 909.1,730.6 
		909.2,735 	"/>
	<polygon id="NH05-38_x5F_02" class="st0" points="954.4,730.4 954.4,775.4 934,776.8 934,730.4 	"/>
	<polygon id="NH05-38_x5F_03" class="st0" points="975,730.4 976.8,774.8 954.4,775.4 954.4,730.4 	"/>
	<polygon id="NH05-38_x5F_04" class="st0" points="1007.6,732.2 1007.6,774.4 976.8,774.8 975,730.4 975,726.6 988.8,726.6 
		988.6,729.8 999.9,729.7 1000.2,732 	"/>
</g>
</svg>
