<?xml version="1.0" encoding="UTF-8"?>
<svg id="Layer_1" data-name="Layer 1" xmlns="http://www.w3.org/2000/svg" viewBox="0 0 2186.55 862.79">
  <defs>
    <style>
      .cls-1 {
        fill: none;
        stroke: #000;
        stroke-miterlimit: 10;
      }
    </style>
  </defs>
  <polygon id="NH06-51_05" class="cls-1" points="1052.37 487.61 1052.37 483.34 1046.76 471.45 1046.76 458.4 1029.42 425.21 1029.09 422.07 1059.81 415.13 1064.26 422.9 1066.74 422.9 1092.5 478.05 1052.37 487.61"/>
  <polygon id="NH06-51_04" class="cls-1" points="1052.37 483.34 1052.37 487.61 1026.12 493.86 1026.12 489.94 1019.18 475.72 1018.03 459.56 1007.07 432.92 1026.28 428.35 1026.45 425.87 1029.42 425.21 1046.76 458.4 1046.76 471.45 1052.37 483.34"/>
  <polygon id="NH06-51_03" class="cls-1" points="1026.12 489.94 1026.12 493.87 999.53 500.2 999.53 494.9 992.59 481.35 992.59 465.42 981.16 439.08 981.16 439.07 1007.07 432.92 1018.03 459.56 1019.18 475.72 1026.12 489.94"/>
  <polygon id="NH06-51_02" class="cls-1" points="999.53 494.9 999.53 500.2 974.1 506.26 974.1 501.67 968.48 488.95 968.48 476.07 955.44 445.19 981.16 439.08 992.59 465.42 992.59 481.35 999.53 494.9"/>
  <polygon id="NH06-51_01" class="cls-1" points="974.1 501.67 974.1 506.26 934.47 515.7 934.47 513.23 910.69 460.71 922.25 459.23 921.92 447.83 953.29 440.24 955.44 445.19 968.48 476.07 968.48 488.95 974.1 501.67"/>
  <polygon id="NH06-50_01" class="cls-1" points="932.15 515.04 932.15 518.51 900.31 534.59 886.74 522.14 886.74 508.44 855.7 476.07 865.93 471.28 867.59 472.11 882.61 463.68 909.36 489.61 909.53 492.91 932.15 515.04"/>
  <polygon id="NH06-50_02" class="cls-1" points="900.31 534.59 876.84 546.44 860.15 528.09 859.33 515.37 836.8 490.31 849.59 483.83 850.25 482.18 853.55 480.36 855.7 476.07 886.74 508.44 886.74 522.14 900.31 534.59"/>
  <polygon id="NH06-50_03" class="cls-1" points="876.84 546.44 854.1 557.92 840.5 544.6 840.5 531.39 813.09 502.33 836.8 490.31 859.33 515.37 860.15 528.09 876.84 546.44"/>
  <polygon id="NH06-50_04" class="cls-1" points="854.1 557.92 814.41 577.96 769.99 531.06 769.99 526.11 772.47 527.26 782.21 522.64 782.7 513.39 798.89 505.79 798.89 504.47 810.61 499.52 813.09 502.33 840.5 531.39 840.5 544.6 854.1 557.92"/>
  <polygon id="NH06-49_01" class="cls-1" points="756.78 603.06 756.78 605.37 720.94 621.72 720.12 616.93 711.53 606.86 710.54 595.13 689.73 564.75 686.43 565.86 686.43 559.79 717.48 548.57 722.43 556 724.08 555.5 756.78 603.06"/>
  <polygon id="NH06-49_02" class="cls-1" points="720.94 621.72 694.85 632.62 694.19 627.5 683.95 613.96 683.95 599.43 669.42 576.44 679.66 572.51 677.46 568.89 686.43 565.86 689.73 564.75 710.54 595.13 711.53 606.86 720.12 616.93 720.94 621.72"/>
  <polygon id="NH06-49_03" class="cls-1" points="694.85 632.62 669.42 643.02 668.43 637.04 660.67 626.84 660.17 614.46 640.52 584.01 638.74 581.24 665.79 570.69 669.42 576.44 683.95 599.43 683.95 613.96 694.19 627.5 694.85 632.62"/>
  <polygon id="NH06-49_04" class="cls-1" points="669.42 643.02 630.45 658.05 595.27 604.88 605.51 601.41 606.17 591.01 623.84 584.73 624.17 583.08 636.72 578.13 640.52 584.01 660.17 614.46 660.67 626.84 668.43 637.04 669.42 643.02"/>
  <polygon id="NH06-48_04" class="cls-1" points="587.68 674.65 587.68 671.1 579.25 660.03 579.25 649.02 555.48 613.13 555.48 610.16 570.5 605.04 586.52 599.43 591.81 606.53 593.79 605.87 627.81 658.88 587.68 674.65"/>
  <polygon id="NH06-48_03" class="cls-1" points="587.68 671.1 587.68 674.65 559.93 685.55 559.93 680.38 550.85 665.81 550.03 651.94 534.67 628.82 534.67 630.8 532.85 628.16 534.67 627.5 531.7 622.55 555.48 613.13 579.25 649.02 579.25 660.03 587.68 671.1"/>
  <polygon id="NH06-48_02" class="cls-1" points="559.93 680.38 559.93 685.55 534.67 695.48 534.67 692.57 526.08 679.68 524.76 666.14 507.03 635.21 519.48 630.23 521.62 632.29 532.85 628.16 534.67 630.8 534.67 628.82 550.03 651.94 550.85 665.81 559.93 680.38"/>
  <polygon id="NH06-48_01" class="cls-1" points="534.67 692.57 534.67 695.48 518.6 701.62 495.48 710.46 461.79 654.75 473.46 651.17 473.57 642.64 491.4 636.14 491.51 634.49 503.84 629.65 507.02 635.21 507.03 635.21 524.76 666.14 526.08 679.68 534.67 692.57"/>
  <polygon id="NH06-47_06" class="cls-1" points="492.83 711.34 452.49 726.42 443.07 710.9 442.19 698.79 427.66 672.58 421.82 663.01 419.95 660.25 433.6 654.97 435.36 655.85 452.32 649.02 457.38 656.73 460.47 655.19 492.83 711.34"/>
  <polygon id="NH06-47_05" class="cls-1" points="424.81 736.77 397.58 746.95 388.03 729.06 386.81 722.9 385.49 722.24 385.49 719.48 386.81 719.48 386.59 715.52 385.49 715.52 384.72 712.33 364.5 684.24 383.73 676.77 385.93 678.2 400.99 671.83 401.68 677.65 398.81 680.07 412.03 703.3 413.46 714.31 412.25 714.31 412.25 715.6 413.9 715.6 414.78 721.57 424.81 736.77"/>
  <polygon id="NH06-47_04" class="cls-1" points="452.49 726.42 424.81 736.77 414.78 721.57 413.9 715.6 412.25 715.6 412.25 714.31 413.46 714.31 412.03 703.3 398.81 680.07 401.68 677.65 400.99 671.83 421.82 663.01 427.66 672.58 442.19 698.79 443.07 710.9 452.49 726.42"/>
  <polygon id="NH06-47_03" class="cls-1" points="397.58 746.95 371.36 756.75 360.39 740.51 359.84 736.22 358.41 734.9 357.45 723.12 343.55 697.02 342.67 692.73 364.5 684.24 384.72 712.33 385.49 715.52 386.59 715.52 386.81 719.48 385.49 719.48 385.49 722.24 386.81 722.9 388.03 729.06 397.58 746.95"/>
  <polygon id="NH06-47_02" class="cls-1" points="371.36 756.75 371.36 756.76 342.67 767.48 332.98 750.97 332.1 739.86 315.23 706.01 328.91 700.44 330.23 702.53 343.55 697.02 357.45 723.12 358.41 734.9 359.84 736.22 360.39 740.51 371.36 756.75"/>
  <polygon id="NH06-47_01" class="cls-1" points="342.67 767.48 299.51 783.56 269.57 726.53 281.02 723.23 280.36 712.44 312.72 700.99 315.23 706.01 332.1 739.86 332.98 750.97 342.67 767.48"/>
  <polygon id="NH06-46_06" class="cls-1" points="228.39 800.95 144.5 834.2 127.33 800.95 127.33 797.21 147.14 790.16 147.14 773.87 179.73 762.2 181.05 764.18 197.42 758.01 200.65 765.72 209.46 762.2 220.25 781.35 221.35 790.38 228.39 800.95"/>
  <polygon id="NH06-46_05" class="cls-1" points="209.46 762.2 200.65 765.72 197.42 758.01 181.05 764.18 179.73 762.2 147.14 773.87 147.14 790.16 127.33 797.21 127.33 800.95 116.6 778.37 140.07 768.53 138.5 765.47 138.5 754 174.17 739.86 177.86 746.73 198.32 739.86 209.46 762.2"/>
  <polygon id="NH06-46_04" class="cls-1" points="198.32 739.86 177.86 746.73 174.17 739.86 138.5 754 138.5 765.47 140.07 768.53 116.6 778.37 107.51 759.25 127.33 750.86 128.51 735.17 171.12 720.23 176.9 730.46 191.02 725.22 198.32 739.86"/>
  <polygon id="NH06-46_03" class="cls-1" points="191.02 725.22 176.9 730.46 171.12 720.23 128.51 735.17 127.33 750.86 107.51 759.25 98.71 740.74 121.82 731.87 121.82 716.68 154.36 703.88 159.56 713.37 181.33 705.79 191.02 725.22"/>
  <polygon id="NH06-46_02" class="cls-1" points="181.33 705.79 159.56 713.37 154.36 703.88 121.82 716.68 121.82 731.87 98.71 740.74 89.6 721.57 108.45 713.79 108.45 708.17 106.3 702.56 110.51 701.4 108.7 695.87 159.14 680.1 161.7 691.82 172.29 687.69 181.33 705.79"/>
  <polygon id="NH06-46_01" class="cls-1" points="172.29 687.69 161.7 691.82 159.14 680.1 108.7 695.87 110.51 701.4 106.3 702.56 108.45 708.17 108.45 713.79 89.6 721.57 78.56 698.35 78.56 695.26 95.95 688 96.06 685.13 94.85 682.6 94.63 680.4 99.59 678.86 99.48 675.34 121.71 667.41 121.6 669.61 149.57 659.7 154.3 667.74 161.13 665.32 172.29 687.69"/>
  <polygon id="NH06-45_06" class="cls-1" points="142.96 633.61 142.96 637.79 62.37 667.08 46.25 635.4 68.65 626.18 66.17 612.56 97.71 600.14 115.22 594.06 118.29 601.31 126.13 598.47 142.96 633.61"/>
  <polygon id="NH06-45_05" class="cls-1" points="126.13 598.47 118.29 601.31 115.22 594.06 97.71 600.14 66.17 612.56 68.65 626.18 46.25 635.4 37.49 618.19 60.89 609.09 58.58 595.05 92.7 582.09 96.39 588.69 118.29 582.09 126.13 598.47"/>
  <polygon id="NH06-45_04" class="cls-1" points="118.29 582.09 96.39 588.69 92.7 582.09 58.58 595.05 60.89 609.09 37.49 618.19 28.89 601.31 48.25 592.74 48.25 576.56 81.86 564.25 84.5 570.36 109.74 564.25 118.29 582.09"/>
  <polygon id="NH06-45_03" class="cls-1" points="109.74 564.25 84.5 570.36 81.86 564.25 48.25 576.56 48.25 592.74 28.89 601.31 20.26 584.36 41.15 576.56 40.33 561.2 73.36 549.31 76.41 553.85 101.52 547.08 109.74 564.25"/>
  <polygon id="NH06-45_02" class="cls-1" points="101.52 547.08 76.41 553.85 73.36 549.31 40.33 561.2 41.15 576.56 20.26 584.36 11.22 566.6 28.91 559.63 26.04 553.02 25.26 547.51 31.55 545.54 31.16 541.05 39.34 539.24 81.2 526.68 83.1 531.64 92.7 528.66 101.52 547.08"/>
  <polygon id="NH06-45_01" class="cls-1" points="92.7 528.66 83.1 531.64 81.2 526.68 39.34 539.24 31.16 541.05 31.55 545.54 25.26 547.51 26.04 553.02 28.91 559.63 11.22 566.6 .5 545.54 .5 542.9 19.22 536.73 15.7 529.9 15.92 528.14 21.86 527.04 20.98 523.3 41.68 516.69 42.12 518.01 68.76 509.21 74.04 518.46 85.49 513.61 92.7 528.66"/>
  <polygon id="NH06-44_04" class="cls-1" points="214.38 513.26 173.35 528.36 147.14 473.98 160.36 468.69 159.48 465.17 191.42 454.99 207.2 486.64 209.02 497.37 212.98 504.05 214.38 513.26"/>
  <polygon id="NH06-44_03" class="cls-1" points="239.43 504.04 239.43 504.05 214.38 513.26 212.98 504.05 209.02 497.37 207.2 486.64 191.42 454.99 205.05 450.64 205.93 452.4 216.41 448.68 229.33 468.97 231.31 488.95 239.43 504.04"/>
  <polygon id="NH06-44_02" class="cls-1" points="265 487.3 265 494.64 239.43 504.04 231.31 488.95 229.33 468.97 216.41 448.68 229.49 444.03 229.49 442.27 242.7 437.59 259.88 468.47 259.88 479.04 265 487.3"/>
  <polygon id="NH06-44_01" class="cls-1" points="265 494.63 265 487.3 259.88 479.04 259.88 468.47 242.7 437.59 271.77 427.3 275.29 431.04 279.92 429.72 306.78 479.26 265 494.63"/>
  <polygon id="NH06-43_05" class="cls-1" points="350.15 464.34 308.54 477.83 281.46 429.06 295.11 425.81 294.45 420.25 323.61 410.15 342.61 441.06 344.1 451.79 350.15 464.34"/>
  <polygon id="NH06-43_04" class="cls-1" points="372.94 456.95 350.15 464.34 344.1 451.79 342.61 441.06 323.61 410.15 348.73 401.45 363.92 423.06 365.57 444.53 372.94 456.95"/>
  <polygon id="NH06-43_03" class="cls-1" points="399.09 441.72 399.09 448.48 372.94 456.95 365.57 444.53 363.92 423.06 348.73 401.45 374.98 392.35 393.97 421.74 393.97 432.64 399.09 441.72"/>
  <polygon id="NH06-43_02" class="cls-1" points="424.52 433.46 424.52 440.24 399.09 448.48 399.09 441.72 393.97 432.64 393.97 421.74 374.98 392.35 400.2 383.61 418.58 415.79 420.06 425.81 424.52 433.46"/>
  <polygon id="NH06-43_01" class="cls-1" points="424.52 440.24 424.52 433.46 420.06 425.81 418.58 415.79 400.2 383.61 428.54 373.79 432.94 378.2 434.92 377.1 464.43 427.3 424.52 440.24"/>
  <polygon id="NH06-42_04" class="cls-1" points="504.63 403.74 504.63 412.4 466.19 425.81 438.01 375.78 450.34 372.03 450.56 366.31 478.44 356.92 498.17 387.72 499.16 398.62 504.63 403.74"/>
  <polygon id="NH06-42_03" class="cls-1" points="504.63 412.4 504.63 403.74 499.16 398.62 498.17 387.72 478.44 356.92 492.39 352.22 493.93 354.2 504.63 350.63 518.15 369.72 520.36 389.21 531.76 402.93 504.63 412.4"/>
  <polygon id="NH06-42_02" class="cls-1" points="553.66 387.89 553.66 395.29 531.76 402.93 520.36 389.21 518.15 369.72 504.63 350.63 516.39 346.71 517.05 344.51 529.01 340.35 547.55 369.72 547.55 379.96 553.66 387.89"/>
  <polygon id="NH06-42_01" class="cls-1" points="553.66 395.29 553.66 387.89 547.55 379.96 547.55 369.72 529.01 340.35 556.25 330.86 559.77 333.94 561.97 333.94 591.92 381.94 553.66 395.29"/>
  <polygon id="NH06-41_06" class="cls-1" points="658.99 345.4 623.4 366.53 575.62 329.1 575.62 326.9 592.8 316.33 591.92 312.58 615.03 299.15 618.12 299.15 647.46 324.47 648.94 337.35 658.99 345.4"/>
  <polygon id="NH06-41_05" class="cls-1" points="675.67 335.5 658.99 345.4 648.94 337.35 647.46 324.47 618.12 299.15 637.4 288.01 660.01 304.49 661 323.27 675.67 335.5"/>
  <polygon id="NH06-41_04" class="cls-1" points="696.28 316.05 696.28 323.27 675.67 335.5 661 323.27 660.01 304.49 637.4 288.01 658.99 275.55 684.78 297.39 685.44 307.46 696.28 316.05"/>
  <polygon id="NH06-41_03" class="cls-1" points="696.28 323.27 696.28 316.05 685.44 307.46 684.78 297.39 658.99 275.55 678.59 264.23 700.3 280 702.12 299.04 716.83 311.07 696.28 323.27"/>
  <polygon id="NH06-41_02" class="cls-1" points="735.58 290.13 735.58 299.94 716.83 311.07 702.12 299.04 700.3 280 678.59 264.23 696.28 254.01 724.18 274.11 725.07 285.01 735.58 290.13"/>
  <polygon id="NH06-41_01" class="cls-1" points="735.58 299.94 735.58 290.13 725.07 285.01 724.18 274.11 696.28 254.01 696.28 251.59 721.82 238.82 724.18 240.72 752.8 263.7 753.78 268.27 754.41 271.19 768.06 280.66 735.58 299.94"/>
  <polygon id="NH06-40_05" class="cls-1" points="799.38 252.47 799.38 261.95 768.94 280 753.78 268.27 752.8 263.7 724.18 240.72 739.22 232.44 737.46 229.57 760.8 215.48 762.78 215.48 791.79 239.28 791.79 250.16 799.38 252.47"/>
  <polygon id="NH06-40_04" class="cls-1" points="799.38 261.95 799.38 252.47 791.79 250.16 791.79 239.28 762.78 215.48 781.12 205.02 803.35 220.44 804.17 238.82 819.26 250.16 799.38 261.95"/>
  <polygon id="NH06-40_03" class="cls-1" points="837.62 239.28 819.26 250.16 804.17 238.82 803.35 220.44 781.12 205.02 800.9 193.74 800.9 196.82 828.57 214.33 828.57 231.34 837.62 239.28"/>
  <polygon id="NH06-40_02" class="cls-1" points="857.63 220.11 857.63 227.41 837.62 239.28 828.57 231.34 828.57 214.33 800.9 196.82 800.9 193.74 817.6 184.22 817.6 181.57 847.27 202.71 847.27 212.68 857.63 220.11"/>
  <polygon id="NH06-40_01" class="cls-1" points="857.63 227.41 857.63 220.11 847.27 212.68 847.27 202.71 817.6 181.57 843.81 168.36 846.45 169.9 851.07 167.26 899.29 202.71 857.63 227.41"/>
  <polygon id="NH06-39_04" class="cls-1" points="926.87 178.33 926.87 186.8 899.29 202.71 851.07 167.26 852.83 165.5 867.36 158.01 866.26 153.61 887.84 141.06 891.36 141.06 920.1 164.38 920.1 173.95 926.87 178.33"/>
  <polygon id="NH06-39_03" class="cls-1" points="926.87 186.8 926.87 178.33 920.1 173.95 920.1 164.38 891.36 141.06 909.22 130.9 930.5 145.63 931.49 163.63 949.14 173.95 926.87 186.8"/>
  <polygon id="NH06-39_02" class="cls-1" points="965.73 156.69 965.73 164.38 949.14 173.95 931.49 163.63 930.5 145.63 909.22 130.9 925.05 121.9 954.45 139.52 954.45 150.42 965.73 156.69"/>
  <polygon id="NH06-39_01" class="cls-1" points="965.73 164.38 965.73 156.69 954.45 150.42 954.45 139.52 925.05 121.9 925.05 119.7 950.37 106.93 959.35 113.47 981.2 129.39 981.2 136.22 995.07 147.45 965.73 164.38"/>
  <polygon id="NH06-38_04" class="cls-1" points="1024.33 130.9 995.07 147.45 981.2 136.22 981.2 129.39 959.35 113.47 965.13 110.68 965.13 98.79 984.5 86.9 988.69 86.9 1016.54 108.8 1016.54 119.37 1023.14 123.83 1024.33 130.9"/>
  <polygon id="NH06-38_03" class="cls-1" points="1042.27 120.76 1024.33 130.9 1023.14 123.83 1016.54 119.37 1016.54 108.8 988.69 86.9 1005.37 77.2 1027.6 92.13 1027.6 109.3 1042.27 120.76"/>
  <polygon id="NH06-38_02" class="cls-1" points="1061.24 101.37 1061.24 110.03 1042.27 120.76 1027.6 109.3 1027.6 92.13 1005.37 77.2 1021.27 67.96 1021.27 65.1 1053.36 86.51 1054.23 98.24 1061.24 101.37"/>
  <polygon id="NH06-38_01" class="cls-1" points="1089.31 91.96 1089.31 94.16 1061.24 110.03 1061.24 101.37 1054.23 98.24 1053.36 86.51 1021.27 65.1 1044.83 52.55 1074.78 74.57 1075.66 83.01 1089.31 91.96"/>
  <polygon id="NH06-37_06" class="cls-1" points="1158.01 13.13 1125.03 33.05 1125.03 44.02 1118.76 48.2 1118.76 56.78 1091.07 40.33 1091.07 36.8 1103.18 28.11 1103.29 21.72 1136.1 .58 1158.01 13.13"/>
  <polygon id="NH06-37_05" class="cls-1" points="1172.85 23.22 1151.13 38.95 1151.13 56.46 1135.83 66.93 1118.76 56.78 1118.76 48.2 1125.03 44.02 1125.03 33.05 1158.01 13.13 1158.01 14.79 1172.85 23.22"/>
  <polygon id="NH06-37_04" class="cls-1" points="1163.35 52.66 1164.01 63.23 1154.26 70.49 1154.26 77.89 1135.83 66.93 1151.13 56.46 1151.13 38.95 1172.85 23.22 1190.15 33.05 1163.35 52.66"/>
  <polygon id="NH06-37_03" class="cls-1" points="1209.45 44.02 1187.79 58.93 1187.79 77.11 1172.85 88.94 1154.26 77.89 1154.26 70.49 1164.01 63.23 1163.35 52.66 1190.15 33.05 1209.45 44.02"/>
  <polygon id="NH06-37_02" class="cls-1" points="1228.14 54.64 1197.53 76.11 1197.53 86.57 1190.76 90.97 1190.76 99.58 1172.85 88.94 1187.79 77.11 1187.79 58.93 1209.45 44.02 1228.14 54.64"/>
  <polygon id="NH06-37_01" class="cls-1" points="1263.14 76.88 1253.76 84.67 1235.29 96.47 1235.24 100.06 1217.02 115.19 1190.76 99.58 1190.76 90.97 1197.53 86.57 1197.53 76.11 1228.14 54.64 1230.45 54.2 1250.37 65.87 1250.37 68.29 1263.14 76.88"/>
  <polygon id="NH06-36_06" class="cls-1" points="1258.3 119.21 1251.33 123.5 1251.45 134.29 1218.34 115.19 1235.18 103.96 1235.24 100.06 1235.29 96.47 1253.76 84.67 1264.58 77.76 1269.53 74.9 1289.68 86.57 1257.31 108.47 1258.3 119.21"/>
  <polygon id="NH06-36_05" class="cls-1" points="1305.93 97.99 1283.07 113.26 1283.07 131.1 1266.5 142.97 1251.45 134.29 1251.33 123.5 1258.3 119.21 1257.31 108.47 1289.68 86.57 1289.68 88.77 1305.93 97.99"/>
  <polygon id="NH06-36_04" class="cls-1" points="1323.42 107.91 1317.59 111.78 1317.59 115.19 1298.26 129.12 1298.26 138.03 1286.21 145.63 1286.21 154.34 1266.5 142.97 1283.07 131.1 1283.07 113.26 1305.93 97.99 1323.42 107.91"/>
  <polygon id="NH06-36_03" class="cls-1" points="1344 119.59 1322.37 135.56 1322.37 153.06 1304.82 165.08 1286.21 154.34 1286.21 145.63 1298.26 138.03 1298.26 129.12 1317.59 115.19 1317.59 111.78 1323.42 107.91 1344 119.59"/>
  <polygon id="NH06-36_02" class="cls-1" points="1363.22 130.49 1355.73 134.29 1355.73 136 1332.53 152.21 1331.8 162.38 1324.91 167.84 1324.91 176.66 1304.82 165.08 1322.37 153.06 1322.37 135.56 1344 119.59 1363.22 130.49"/>
  <polygon id="NH06-36_01" class="cls-1" points="1399.59 153.8 1354.41 193.68 1324.91 176.66 1324.91 167.84 1331.8 162.38 1332.53 152.21 1355.73 136 1355.73 134.29 1363.22 130.49 1365.64 129.94 1386.45 141.94 1386.78 146.24 1399.59 153.8"/>
  <polygon id="NH06-35_06" class="cls-1" points="1428.59 165.88 1398.5 189.85 1398.5 200.25 1391.74 205.24 1391.74 215.75 1359.48 197.76 1375.04 186.09 1375.66 178.49 1404.83 154.71 1408.36 156.8 1408.91 154.71 1428.59 165.88"/>
  <polygon id="NH06-35_05" class="cls-1" points="1449.52 177.75 1427.4 193.68 1425.42 212.95 1410.37 226.15 1391.74 215.75 1391.74 205.24 1398.5 200.25 1398.5 189.85 1428.59 165.88 1449.52 177.75"/>
  <polygon id="NH06-35_04" class="cls-1" points="1467.68 188.05 1441.77 211.23 1441.77 221.59 1431.36 229.52 1431.36 237.86 1410.37 226.15 1425.42 212.95 1427.4 193.68 1449.52 177.75 1467.68 188.05"/>
  <polygon id="NH06-35_03" class="cls-1" points="1489.2 200.25 1466.37 216.8 1466.37 236.29 1456.8 243.06 1456.8 252.05 1431.36 237.86 1431.36 229.52 1441.77 221.59 1441.77 211.23 1467.68 188.05 1489.2 200.25"/>
  <polygon id="NH06-35_02" class="cls-1" points="1508.55 211.23 1477.44 235.46 1477.44 245.94 1469.84 251.15 1469.84 259.33 1456.8 252.05 1456.8 243.06 1466.37 236.29 1466.37 216.8 1489.2 200.25 1508.55 211.23"/>
  <polygon id="NH06-35_01" class="cls-1" points="1544.73 236.67 1517.13 258.31 1517.13 261.16 1501.16 274.6 1501.16 276.8 1469.84 259.33 1469.84 251.15 1477.44 245.94 1477.44 235.46 1508.55 211.23 1532.54 224.84 1531.99 229.68 1544.73 236.67"/>
  <polygon id="NH06-34_01" class="cls-1" points="1571.13 245.94 1541.68 271.13 1541.68 281.64 1533.59 286.33 1533.59 294.33 1502.92 276.36 1502.92 274.49 1517.13 264.14 1517.13 258.31 1544.73 236.67 1548.17 233.98 1550.7 235.19 1552.47 235.3 1571.13 245.94"/>
  <polygon id="NH06-34_02" class="cls-1" points="1592.57 258.16 1570.25 276.8 1570.25 293.98 1560.01 301.68 1560.01 309.81 1533.59 294.33 1533.59 286.33 1541.68 281.64 1541.68 271.13 1571.13 245.94 1592.57 258.16"/>
  <polygon id="NH06-34_03" class="cls-1" points="1612.52 269.53 1584.12 290.79 1584.12 301.68 1574.7 310.44 1574.7 318.42 1560.01 309.81 1560.01 301.68 1570.25 293.98 1570.25 276.8 1592.57 258.16 1612.52 269.53"/>
  <polygon id="NH06-34_04" class="cls-1" points="1633.76 281.64 1611.7 299.21 1611.7 318.86 1601.62 323.98 1601.62 334.19 1574.7 318.42 1574.7 310.44 1584.12 301.68 1584.12 290.79 1612.52 269.53 1633.76 281.64"/>
  <polygon id="NH06-34_05" class="cls-1" points="1654.42 293.42 1624.41 318.36 1623.59 329.65 1616.81 334.43 1616.81 343.09 1601.62 334.19 1601.62 323.98 1611.7 318.86 1611.7 299.21 1633.76 281.64 1654.42 293.42"/>
  <polygon id="NH06-34_06" class="cls-1" points="1695.92 320.95 1648.91 361.9 1616.81 343.09 1616.81 334.43 1623.59 329.65 1624.41 318.36 1654.42 293.42 1679.73 307.85 1679.62 311.81 1695.92 320.95"/>
  <polygon id="NH06-33_04" class="cls-1" points="1739.18 340.22 1709.57 365.87 1709.57 376.44 1701.75 381.83 1701.76 389.98 1668.28 370.82 1668.28 368.84 1683.36 356.4 1683.36 352.33 1716.72 327.23 1739.18 340.22"/>
  <polygon id="NH06-33_03" class="cls-1" points="1762.87 353.92 1738.41 370.05 1736.98 389.98 1724.84 403.19 1722.76 402 1701.76 389.98 1701.75 381.83 1709.57 376.44 1709.57 365.87 1739.18 340.22 1761.41 353.07 1762.87 353.92"/>
  <polygon id="NH06-33_02" class="cls-1" points="1751.95 401.38 1744.36 406.93 1744.85 414.64 1724.84 403.19 1736.98 389.98 1738.41 370.05 1762.87 353.92 1782.48 365.26 1751.4 391.74 1751.95 401.38"/>
  <polygon id="NH06-33_01" class="cls-1" points="1819.94 390.59 1793.15 415.08 1792.47 419.7 1776.06 432.36 1776.06 432.5 1744.85 414.64 1744.36 406.93 1751.95 401.38 1751.4 391.74 1782.48 365.26 1808.65 380.4 1808.65 384.36 1819.94 390.59"/>
  <polygon id="NH06-32_04" class="cls-1" points="1849.24 401.38 1821.75 426.42 1821.75 437.1 1810.68 443.48 1810.68 454.48 1776.06 434.68 1776.06 432.36 1792.47 419.7 1793.15 415.08 1819.94 390.59 1822.41 388.33 1825.05 389.76 1825.05 387.78 1849.24 401.38"/>
  <polygon id="NH06-32_03" class="cls-1" points="1871.93 414.15 1849.24 434.68 1847.51 452.62 1838.7 459.12 1838.29 470.28 1810.68 454.48 1810.68 443.48 1821.75 437.1 1821.75 426.42 1849.24 401.38 1871.93 414.15"/>
  <polygon id="NH06-32_02" class="cls-1" points="1895.04 427.14 1864.03 453.94 1863.48 465.39 1855.66 470.28 1855.66 480.22 1838.29 470.28 1838.7 459.12 1847.51 452.62 1849.24 434.68 1871.93 414.15 1895.04 427.14"/>
  <polygon id="NH06-32_01" class="cls-1" points="1931.29 451.63 1931.29 454.49 1885.16 497.1 1855.66 480.22 1855.66 470.28 1863.48 465.39 1864.03 453.94 1895.04 427.14 1920.17 441.28 1920.17 445.9 1931.29 451.63"/>
  <polygon id="NH06-31_01" class="cls-1" points="1963.25 466.11 1934.37 493.79 1933.71 504.25 1926.01 510.31 1925.57 519.22 1888.49 497.87 1925.13 464.84 1926.45 466.49 1939.66 452.62 1963.25 466.11"/>
  <polygon id="NH06-31_02" class="cls-1" points="1986.83 479.61 1964.65 498.31 1963.99 518.61 1947.24 531.7 1925.57 519.22 1926.01 510.31 1933.71 504.25 1934.37 493.79 1963.25 466.11 1986.83 479.61"/>
  <polygon id="NH06-31_03" class="cls-1" points="2010.5 493.15 1987.55 512.62 1986.12 532.88 1968.73 544.07 1947.24 531.7 1963.99 518.61 1964.65 498.31 1986.83 479.61 2010.5 493.15"/>
  <polygon id="NH06-31_04" class="cls-1" points="2033.71 506.43 2002.63 534.2 2002.63 542.35 1993.9 549.72 1993.9 558.57 1968.73 544.07 1986.12 532.88 1987.55 512.62 2010.5 493.15 2033.71 506.43"/>
  <polygon id="NH06-31_05" class="cls-1" points="2074.41 533.83 2072.31 535.85 2030.15 579.45 1993.9 558.57 1993.9 549.72 2002.63 542.35 2002.63 534.2 2033.71 506.43 2061.46 522.31 2061.46 526.6 2074.41 533.83"/>
  <polygon id="NH06-30_05" class="cls-1" points="2112.1 700.55 2082.67 728.57 2010.83 685.96 2010.83 682.49 2020.41 675.72 2021.9 666.14 2037.75 653.26 2039.07 653.26 2042.7 655.74 2049.64 648.8 2092.25 672.42 2092.25 674.9 2096.7 678.03 2094.56 687.61 2091.09 689.1 2112.1 700.55"/>
  <polygon id="NH06-30_04" class="cls-1" points="2130.13 683.38 2112.1 700.55 2091.09 689.1 2094.56 687.61 2096.7 678.03 2092.25 674.9 2092.25 672.42 2049.64 648.8 2042.7 655.74 2039.07 653.26 2045.52 646.83 2053.13 639.25 2069.79 647.98 2077.71 641.04 2077.05 638.24 2108.43 656.24 2108.43 660.86 2106.12 660.86 2106.28 669.28 2130.13 683.38"/>
  <polygon id="NH06-30_03" class="cls-1" points="2144.25 669.94 2130.13 683.38 2106.28 669.28 2106.12 660.86 2108.43 660.86 2108.43 656.24 2077.05 638.24 2077.71 641.04 2069.79 647.98 2053.13 639.25 2072.31 620.12 2090.59 629.48 2092.58 627.5 2092.58 623.04 2104.63 629.48 2104.63 632.13 2123.29 642.03 2123.29 652.11 2119.66 655.41 2119.49 656.9 2144.25 669.94"/>
  <polygon id="NH06-30_02" class="cls-1" points="2159.31 655.61 2144.25 669.94 2119.49 656.9 2119.66 655.41 2123.29 652.11 2123.29 642.03 2104.63 632.13 2104.63 629.48 2092.58 623.04 2092.58 627.5 2090.59 629.48 2072.31 620.12 2084.3 608.16 2093.73 613.13 2095.71 602.24 2130.13 623.21 2130.13 620.12 2139.97 625.68 2139.97 628 2144.25 630.97 2144.25 639.23 2140.63 641.54 2140.3 644.35 2159.31 655.61"/>
  <polygon id="NH06-30_01" class="cls-1" points="2185.71 630.47 2159.31 655.61 2140.3 644.35 2140.63 641.54 2144.25 639.23 2144.25 630.97 2139.97 628 2139.97 625.68 2130.13 620.12 2130.13 623.21 2095.71 602.24 2093.73 613.13 2084.3 608.16 2098.36 594.14 2103.14 595.79 2113.88 585.23 2137.66 599.43 2138.81 597.94 2157.81 608.84 2156.65 611.65 2162.59 615.12 2161.93 617.43 2185.71 630.47"/>
  <polygon id="NH06-29_06" class="cls-1" points="1971.7 835.41 1941.97 862.16 1869.97 816.25 1869.97 812.95 1881.53 804.69 1881.53 797.1 1898.46 781.74 1903.16 782.15 1909.93 777.28 1942.88 800.24 1942.96 796.77 1953.62 802.7 1953.55 806.98 1957.93 809.93 1956.92 817.99 1955.35 820.88 1970.79 830.46 1971.7 835.41"/>
  <polygon id="NH06-29_05" class="cls-1" points="1991.52 815.6 1971.7 835.41 1970.79 830.46 1955.35 820.88 1956.92 817.99 1957.93 809.93 1953.55 806.98 1953.62 802.7 1942.96 796.77 1942.88 800.24 1909.93 777.28 1920.83 769.11 1919.35 762.5 1936.52 772.41 1939.99 768.61 1969.22 788.01 1968.56 799.74 1966.91 801.72 1991.52 815.6"/>
  <polygon id="NH06-29_04" class="cls-1" points="2007.34 799.8 1991.52 815.6 1966.91 801.72 1968.56 799.74 1969.22 788.01 1939.99 768.61 1936.52 772.41 1919.35 762.5 1932.49 750.45 1942.47 756.72 1948.49 750.94 1958.73 756.72 1959.72 755.32 1986.56 771.34 1986.89 784.05 1988.7 784.71 1988.7 786.53 1987.3 787.52 2007.34 799.8"/>
  <polygon id="NH06-29_03" class="cls-1" points="2024.19 782.96 2007.34 799.8 1987.3 787.52 1988.7 786.53 1988.7 784.71 1986.89 784.05 1986.56 771.34 1959.72 755.32 1958.73 756.72 1948.49 750.94 1942.47 756.72 1932.49 750.45 1945.19 738.8 1950.31 741.45 1955.68 736.82 1954.11 730.05 1969.91 739.38 1973.35 736.24 2002.82 755.81 2002.82 765.47 2000.59 768.69 2024.19 782.96"/>
  <polygon id="NH06-29_02" class="cls-1" points="2040.42 766.74 2024.19 782.96 2000.59 768.69 2002.82 765.47 2002.82 755.81 1973.35 736.24 1969.91 739.38 1954.11 730.05 1966 719.98 1976.73 724.44 1984.16 718.25 2010.67 734.02 2010.83 732.46 2020.41 738.15 2020.58 741.78 2025.53 744.51 2025.86 751.68 2021.9 755.57 2040.42 766.74"/>
  <polygon id="NH06-29_01" class="cls-1" points="2068.22 738.97 2040.42 766.74 2021.9 755.57 2025.86 751.68 2025.53 744.51 2020.58 741.78 2020.41 738.15 2010.83 732.46 2010.67 734.02 1984.16 718.25 1976.73 724.44 1966 719.98 1965.67 717.91 1980.94 703.63 1985.07 705.94 1995.81 695.54 2019.67 709.9 2022.06 709.24 2039.81 720.23 2039.81 721.88 2068.22 738.97"/>
  <polygon id="NH06-28_04" class="cls-1" points="1988.87 609.77 1941.31 655.08 1905.36 633.91 1905.36 633.9 1904.32 628.33 1917.2 617.54 1917.2 606.86 1944.94 579.45 1949.24 574.82 1976.98 591.01 1976.98 602.57 1988.87 609.77"/>
  <polygon id="NH06-28_03" class="cls-1" points="1944.94 579.45 1917.2 606.86 1917.2 617.54 1904.32 628.33 1905.36 633.9 1882.03 620.16 1882.03 614.9 1897.38 600.36 1898.7 586.71 1920.84 564.91 1944.94 579.45"/>
  <polygon id="NH06-28_02" class="cls-1" points="1920.84 564.91 1898.7 586.71 1897.38 600.36 1882.03 614.9 1882.03 620.16 1859.13 606.68 1858.41 600.8 1869.97 589.68 1869.97 579.12 1873.27 575.48 1873.27 572.18 1879.88 567.23 1879.88 569.54 1901.68 553.35 1920.84 564.91"/>
  <polygon id="NH06-28_01" class="cls-1" points="1905.64 548.07 1901.68 553.35 1879.88 569.54 1879.88 567.23 1873.27 572.18 1873.27 575.48 1869.97 579.12 1869.97 589.68 1858.41 600.8 1859.13 606.68 1821.86 584.73 1821.86 582.42 1848.17 559.41 1848.17 556.33 1877.24 532.88 1892.1 541.75 1895.07 541.75 1905.64 548.07"/>
  <polygon id="NH06-27_04" class="cls-1" points="1867.99 535.52 1821.86 582.42 1785.09 561.14 1798.9 548.07 1798.9 536.51 1825.05 509.22 1829.68 504.8 1858.41 521.65 1857.42 529.68 1867.99 535.52"/>
  <polygon id="NH06-27_03" class="cls-1" points="1825.05 509.22 1798.9 536.51 1798.9 548.07 1785.09 561.14 1761.24 547.34 1761.97 546.64 1777.82 529.68 1777.82 516.47 1803.47 496.32 1825.05 509.22"/>
  <polygon id="NH06-27_02" class="cls-1" points="1803.47 496.32 1777.82 516.47 1777.82 529.68 1761.97 546.64 1761.24 547.34 1737.9 533.83 1738.85 532.88 1752.72 521.32 1752.72 509.22 1756.03 507.12 1757.76 503.77 1783.29 483.23 1803.47 496.32"/>
  <polygon id="NH06-27_01" class="cls-1" points="1786.89 479.49 1783.29 483.23 1757.76 503.77 1756.03 507.12 1752.72 509.22 1752.72 521.32 1738.85 532.88 1737.9 533.83 1705.96 515.35 1705.96 512.4 1743.81 480.65 1742.48 478.38 1759.33 464.84 1786.89 479.49"/>
  <polygon id="NH06-26_04" class="cls-1" points="1748.76 468.25 1700.76 511.85 1671.92 495.13 1671.92 490.05 1682.92 480.65 1682.92 468.69 1709.79 443.59 1715.03 438.53 1741.71 454.6 1741.05 464.84 1748.76 468.25"/>
  <polygon id="NH06-26_03" class="cls-1" points="1709.79 443.59 1682.92 468.69 1682.92 480.65 1671.92 490.05 1671.92 495.13 1647.23 479.65 1664.21 463.63 1664.21 450.2 1684.03 431.92 1688.65 434.57 1691.29 432.81 1709.79 443.59"/>
  <polygon id="NH06-26_02" class="cls-1" points="1691.29 432.81 1688.65 434.57 1684.03 431.92 1664.21 450.2 1664.21 463.63 1647.23 479.65 1628.32 467.8 1628.32 464.84 1639.33 455.04 1639.33 442.71 1668.61 419.59 1691.29 432.81"/>
  <polygon id="NH06-26_01" class="cls-1" points="1671.92 415.63 1668.61 419.59 1639.33 442.71 1639.33 455.04 1628.32 464.84 1628.32 467.8 1596.02 447.56 1614.67 429.72 1617.53 426.64 1617.53 422.24 1620.61 424.07 1646.59 400.88 1671.92 415.63"/>
  <polygon id="NH06-25_04" class="cls-1" points="1579.11 368.73 1530.12 410.79 1497.57 391.88 1497.07 387.45 1508.32 376.88 1508.32 366.97 1537.16 342.09 1542.23 337.46 1565.57 352.44 1565.57 364.11 1579.11 368.73"/>
  <polygon id="NH06-25_03" class="cls-1" points="1537.16 342.09 1508.32 366.97 1508.32 376.88 1497.07 387.45 1497.57 391.88 1478.49 380.8 1478.49 374.01 1491.81 362.79 1491.81 348.69 1515.65 329.65 1537.16 342.09"/>
  <polygon id="NH06-25_02" class="cls-1" points="1515.65 329.65 1491.81 348.69 1491.81 362.79 1478.49 374.01 1478.49 380.8 1456.36 367.95 1456.36 362.79 1466.7 353.54 1466.7 341.65 1470.45 339.89 1470.45 336.14 1500.61 315.23 1500.61 320.95 1515.65 329.65"/>
  <polygon id="NH06-25_01" class="cls-1" points="1500.61 315.23 1470.45 336.14 1470.45 339.89 1466.7 341.65 1466.7 353.54 1456.36 362.79 1456.36 367.95 1425.09 349.79 1425.09 347.48 1439.97 335.2 1444.69 330.57 1444.69 329.1 1446.67 326.68 1446.67 323.59 1467.68 308.02 1477.27 300.91 1500.61 315.23"/>
  <polygon id="NH06-24_06" class="cls-1" points="1467.68 308.02 1446.67 323.59 1446.67 326.68 1444.69 329.1 1444.69 330.57 1439.97 335.2 1425.09 347.48 1425.09 349.79 1392.81 331.11 1392.5 325.57 1405.05 316.33 1403.05 315.23 1403.05 304.88 1430.81 281.54 1435.62 277.13 1459.58 291.67 1459.58 303.78 1467.68 308.02"/>
  <polygon id="NH06-24_05" class="cls-1" points="1405.05 316.33 1392.5 325.57 1392.81 331.11 1372.64 319.44 1372.64 314.13 1386.56 303.34 1386.56 289.02 1410.43 269.88 1430.81 281.54 1403.05 304.88 1403.05 315.23 1405.05 316.33"/>
  <polygon id="NH06-24_04" class="cls-1" points="1410.43 269.88 1386.56 289.02 1386.56 303.34 1372.64 314.13 1372.64 319.44 1353.02 308.08 1353.02 302.24 1365.64 291.89 1365.64 276.91 1388.85 257.54 1410.43 269.88"/>
  <polygon id="NH06-24_03" class="cls-1" points="1388.85 257.54 1365.64 276.91 1365.64 291.89 1353.02 302.24 1353.02 308.08 1333.04 296.52 1333.04 289.68 1346.24 279.12 1346.48 265.46 1370.48 247.04 1388.85 257.54"/>
  <polygon id="NH06-24_02" class="cls-1" points="1370.48 247.04 1346.48 265.46 1346.24 279.12 1333.04 289.68 1333.04 296.52 1312.47 284.62 1312.47 284.61 1312.36 278.68 1323.43 270.56 1322.89 258.42 1324.69 256.88 1324.69 252.91 1355.73 232.44 1355.73 238.6 1370.48 247.04"/>
  <polygon id="NH06-24_01" class="cls-1" points="1355.73 232.44 1324.69 252.91 1324.69 256.88 1322.89 258.42 1323.43 270.56 1312.36 278.68 1312.47 284.61 1311.65 284.14 1282.41 267.23 1282.41 265.68 1282.42 265.67 1293.52 256.45 1293.54 256.43 1301.64 247.85 1299.81 247.85 1300.25 246.09 1303.71 243.89 1303.71 240.8 1319.82 228.62 1319.84 228.6 1331.95 219.45 1355.73 232.44"/>
  <polygon id="NH06-23_06" class="cls-1" points="1319.84 211.52 1319.84 228.6 1319.82 228.62 1303.71 240.8 1303.71 243.89 1300.25 246.09 1299.81 247.85 1301.64 247.85 1293.54 256.43 1293.52 256.45 1282.42 265.67 1250.54 247.04 1263.7 235.52 1263.7 223.19 1290.56 201.17 1295.62 196.99 1319.84 211.52"/>
  <polygon id="NH06-23_05" class="cls-1" points="1290.56 201.17 1263.7 223.19 1263.7 235.52 1250.54 247.04 1233.53 237.09 1233.53 232.44 1247.18 221.43 1247.18 208.22 1270.92 189.85 1290.56 201.17"/>
  <polygon id="NH06-23_04" class="cls-1" points="1270.92 189.85 1247.18 208.22 1247.18 221.43 1233.53 232.44 1233.53 237.09 1215.48 226.54 1215.48 220.77 1225.38 212.84 1225.38 201.39 1227.81 200.07 1227.81 196.33 1251.33 178.56 1270.92 189.85"/>
  <polygon id="NH06-23_03" class="cls-1" points="1251.33 178.56 1227.81 196.33 1227.81 200.07 1225.38 201.39 1225.38 212.84 1215.48 220.77 1215.48 226.54 1195.51 214.87 1195.51 209.98 1209.31 198.75 1209.31 185.76 1232.73 167.84 1251.33 178.56"/>
  <polygon id="NH06-23_02" class="cls-1" points="1232.73 167.84 1209.31 185.76 1209.31 198.75 1195.51 209.98 1195.51 214.87 1176.06 203.5 1176.06 198.31 1185.97 191.26 1185.97 177.83 1210.85 161.1 1210.85 158.46 1219.88 152.73 1219.88 160.44 1232.73 167.84"/>
  <polygon id="NH06-23_01" class="cls-1" points="1219.88 152.73 1210.85 158.46 1210.85 161.1 1185.97 177.83 1185.97 191.26 1176.06 198.31 1176.06 203.5 1147.22 186.64 1147.22 182.68 1166.59 169.46 1166.59 168.14 1164.61 168.14 1165.27 165.72 1167.92 163.96 1167.92 161.32 1198.08 141.5 1219.88 152.73"/>
  <polygon id="NH06-22_06" class="cls-1" points="1118.76 184.88 1118.76 188.4 1092.78 204.27 1092.78 199.46 1081.77 192.36 1081.77 180.47 1050.61 155.61 1069.49 143.26 1084.69 154.93 1087.11 154.27 1099.88 163.52 1099.88 165.94 1102.52 167.84 1102.52 171.01 1101.2 172.5 1118.76 184.88"/>
  <polygon id="NH06-22_05" class="cls-1" points="1092.78 199.46 1092.78 204.27 1073.66 215.95 1073.02 212.18 1059.31 202.71 1059.31 188.24 1037.51 170.68 1042.41 167.84 1042.41 165.28 1040.87 161.98 1050.61 155.61 1081.77 180.47 1081.77 192.36 1092.78 199.46"/>
  <polygon id="NH06-22_04" class="cls-1" points="1054.23 227.82 1054.23 223.74 1041.64 214.16 1039.99 198.31 1014.81 179.75 1019.73 176.95 1021.05 178.49 1027.63 175.19 1027.63 172.5 1029.86 172.5 1031.62 174.09 1037.51 170.68 1059.31 188.24 1059.31 202.71 1073.02 212.18 1073.66 215.95 1054.23 227.82"/>
  <polygon id="NH06-22_03" class="cls-1" points="1054.23 223.74 1054.23 227.82 1033.71 240.36 1033.71 234.64 1021.49 224.73 1021.49 211.52 995.9 190.52 1014.81 179.75 1039.99 198.31 1041.64 214.16 1054.23 223.74"/>
  <polygon id="NH06-22_02" class="cls-1" points="1033.71 234.64 1033.71 240.36 1016.12 251.1 1016.12 246.69 1005.64 239.1 1005.64 225.39 978.78 203.5 989.13 198.09 989.57 194.13 995.9 190.52 1021.49 211.52 1021.49 224.73 1033.71 234.64"/>
  <polygon id="NH06-22_01" class="cls-1" points="1016.12 246.69 1016.12 251.11 986.48 269.21 936.5 233.32 936.5 228.69 948.83 222.75 948.83 214.87 973.71 199.85 978.78 203.5 1005.64 225.39 1005.64 239.1 1016.12 246.69"/>
  <polygon id="NH06-21_06" class="cls-1" points="973.05 273.39 973.05 277.13 945.23 293.94 944.65 289.35 934.3 282.03 933.75 268.33 900.31 242.79 923.29 230.68 952.8 251.37 955.88 256.44 954.78 259.52 973.05 273.39"/>
  <polygon id="NH06-21_05" class="cls-1" points="925.7 305.73 925.7 300.8 909.42 290.35 909.42 276.69 886.43 258.32 900.31 250.05 900.31 242.79 933.75 268.33 934.3 282.03 944.65 289.35 945.23 293.94 925.7 305.73"/>
  <polygon id="NH06-21_04" class="cls-1" points="925.7 300.8 925.7 305.74 906.02 317.62 906.02 312.58 889.71 300.8 890.37 287.37 884.32 282.97 884.32 284.73 866.41 270.25 886.43 258.32 909.42 276.69 909.42 290.35 925.7 300.8"/>
  <polygon id="NH06-21_03" class="cls-1" points="906.02 312.58 906.02 317.62 886.43 329.45 886.43 324.8 871.11 314.24 870.89 300.36 847.48 281.53 866.41 270.25 884.32 284.73 884.32 282.97 890.37 287.37 889.71 300.8 906.02 312.58"/>
  <polygon id="NH06-21_02" class="cls-1" points="886.43 324.8 886.43 329.46 868.39 340.35 855.25 330.31 855.25 317.65 827.51 293.43 847.48 281.53 870.89 300.36 871.11 314.24 886.43 324.8"/>
  <polygon id="NH06-21_01" class="cls-1" points="868.39 340.35 835.93 359.96 815.4 343.08 815.4 339.81 812.21 336.69 811.74 335.15 788.76 317.65 797.35 313.46 797.13 304.66 822.67 290.13 827.51 293.43 855.25 317.65 855.25 330.31 868.39 340.35"/>
  <polygon id="NH06-20_06" class="cls-1" points="835.93 359.96 803.98 379.26 803.51 374.79 793.38 367.41 792.39 352.99 758.59 326.01 781.71 312.58 788.76 317.65 811.74 335.15 812.21 336.69 815.4 339.81 815.4 343.08 835.93 359.96"/>
  <polygon id="NH06-20_05" class="cls-1" points="783.18 391.82 783.18 386.46 765.53 372.69 765.53 363.23 767.51 363.23 767.29 360.69 741.31 339.81 759.25 329.76 758.59 326.01 792.39 352.99 793.38 367.41 803.51 374.79 803.98 379.26 783.18 391.82"/>
  <polygon id="NH06-20_04" class="cls-1" points="783.18 386.46 783.18 391.82 762.5 404.31 762.12 399.67 746.15 386.79 746.15 372.91 740.86 368.73 740.86 370.82 724.06 354.21 737.02 346.49 737.24 342.09 741.31 339.81 767.29 360.69 767.51 363.23 765.53 363.23 765.53 372.69 783.18 386.46"/>
  <polygon id="NH06-20_03" class="cls-1" points="741.31 418.11 741.31 412.67 724.91 401 723.7 390.43 724.91 389.55 724.91 387.24 703.35 367.53 724.06 355.21 740.86 371.82 740.86 369.73 746.15 373.91 746.15 387.79 762.12 400.67 762.5 405.31 741.31 418.11"/>
  <polygon id="NH06-20_02" class="cls-1" points="741.31 411.67 741.31 417.11 721.31 429.19 721.31 424.07 710.48 416.18 709.6 403.52 682.19 380.18 696.5 371.81 696.28 366.97 699.14 366.09 700.03 368.51 703.35 366.53 724.91 386.24 724.91 388.55 723.7 389.43 724.91 400 741.31 411.67"/>
  <polygon id="NH06-20_01" class="cls-1" points="721.31 424.07 721.31 429.19 709.06 436.6 691.66 444.47 691.66 447.11 688.36 449.1 639.03 409.24 651.59 401.76 651.36 389.87 676.91 376 682.19 380.18 709.6 403.52 710.48 416.18 721.31 424.07"/>
  <polygon id="NH06-19_04" class="cls-1" points="654.01 463.19 615.41 477.83 608.43 464.91 608.43 449.1 585.09 417.39 615.03 407.04 620.1 415.41 622.52 414.75 654.01 463.19"/>
  <polygon id="NH06-19_03" class="cls-1" points="615.41 477.83 591.65 486.84 578.92 468.59 578.92 454.74 564.81 431.2 583.55 424.07 585.09 417.39 608.43 449.1 608.43 464.91 615.41 477.83"/>
  <polygon id="NH06-19_02" class="cls-1" points="591.65 486.84 566.56 496.36 559.69 481.9 557.35 468.59 539.73 440.73 564.81 431.2 578.92 454.74 578.92 468.59 591.65 486.84"/>
  <polygon id="NH06-19_01" class="cls-1" points="566.56 496.36 526.3 511.63 494.81 462.31 494.81 457.9 506.7 455.92 506.7 446.24 535.77 435.23 539.73 440.73 557.35 468.59 559.69 481.9 566.56 496.36"/>
  <polygon id="NH06-18_05" class="cls-1" points="520.36 511.63 520.36 513.61 482.35 527.22 473.24 511.63 471.66 497.56 451.88 463.85 482.04 453.28 487.33 462.09 490.63 461.43 520.36 511.63"/>
  <polygon id="NH06-18_04" class="cls-1" points="482.35 527.22 457.15 536.24 445.82 515.69 443.99 502.49 432.3 482.35 432.3 476.42 450.34 470.46 451.88 463.85 471.66 497.56 473.24 511.63 482.35 527.22"/>
  <polygon id="NH06-18_03" class="cls-1" points="457.15 536.24 432.3 545.14 419.95 528.36 418.74 511.63 404.21 485.69 432.3 476.42 432.3 482.35 443.99 502.49 445.82 515.69 457.15 536.24"/>
  <polygon id="NH06-18_02" class="cls-1" points="432.3 545.14 404.67 555.03 394.66 539.15 394.66 526.93 378.34 494.24 404.21 485.69 418.74 511.63 419.95 528.36 432.3 545.14"/>
  <polygon id="NH06-18_01" class="cls-1" points="404.67 555.03 364.5 569.42 335.34 515.69 345.09 512.29 343.77 501.72 376.14 489.83 378.34 494.24 394.66 526.93 394.66 539.15 404.67 555.03"/>
  <polygon id="NH06-17_04" class="cls-1" points="364.5 569.42 326.98 582.85 317.02 566.24 314.7 553.61 294.23 519.56 325.49 508.55 331.22 517.13 335.34 515.69 364.5 569.42"/>
  <polygon id="NH06-17_03" class="cls-1" points="326.98 582.85 299.59 592.66 288.94 574.19 285.64 557.98 271.91 533.58 295.55 525.28 294.23 519.56 314.7 553.61 317.02 566.24 326.98 582.85"/>
  <polygon id="NH06-17_02" class="cls-1" points="299.59 592.66 271.91 602.57 263.18 585.47 261.86 574.19 246.27 542.59 271.91 533.58 285.64 557.98 288.94 574.19 299.59 592.66"/>
  <polygon id="NH06-17_01" class="cls-1" points="271.91 602.57 229.49 617.76 200.65 563.59 212.32 558.97 211.88 549.5 243.81 537.61 246.27 542.59 261.86 574.19 263.18 585.47 271.91 602.57"/>
  <polygon id="NH06-16_04" class="cls-1" points="308.54 664 266.7 678.97 238.08 624.36 251.07 618.86 250.19 613.79 281.46 602.57 300.61 636.91 302.37 646.6 306.12 653.65 306.12 659.15 308.54 664"/>
  <polygon id="NH06-16_03" class="cls-1" points="334.03 654.89 308.54 664 306.12 659.15 306.12 653.65 302.37 646.6 300.61 636.91 281.46 602.57 308.54 592.66 321.31 616.44 326.37 636.91 334.03 654.89"/>
  <polygon id="NH06-16_02" class="cls-1" points="361.16 636.47 361.16 645.2 334.03 654.89 326.37 636.91 321.31 616.44 308.54 592.66 335.34 582.85 353.02 616.88 354.45 626.79 361.16 636.47"/>
  <polygon id="NH06-16_01" class="cls-1" points="361.16 645.2 361.16 636.47 354.45 626.79 353.02 616.88 335.34 582.85 364.5 572.18 367.77 575.04 370.12 573.8 400.36 631.19 361.16 645.2"/>
  <polygon id="NH06-15_05" class="cls-1" points="443.57 615.49 406.74 629.65 373.05 572.18 386.48 566.68 386.7 564.25 416.92 553.61 436.69 585.17 438.01 596.84 442.19 603.89 443.57 615.49"/>
  <polygon id="NH06-15_04" class="cls-1" points="471.05 604.93 443.57 615.49 442.19 603.89 438.01 596.84 436.69 585.17 416.92 553.61 443.57 544.22 457.31 566.48 458.46 584.55 471.05 604.93"/>
  <polygon id="NH06-15_03" class="cls-1" points="499.75 593.9 471.05 604.93 458.46 584.55 457.31 566.48 443.57 544.22 470.13 534.86 483.39 556.33 483.39 560.62 487.44 564.91 488.1 575.48 499.75 593.9"/>
  <polygon id="NH06-15_02" class="cls-1" points="521.67 585.47 499.75 593.9 488.1 575.48 487.44 564.91 483.39 560.62 483.39 556.33 470.13 534.86 495.97 525.76 514.6 558.89 514.6 567.97 521.21 577.13 521.67 585.47"/>
  <polygon id="NH06-15_01" class="cls-1" points="561.97 569.98 521.67 585.47 521.21 577.13 514.6 567.97 514.6 558.89 495.97 525.76 526.08 515.15 527.84 517.79 530.26 517.79 561.97 569.98"/>
  <polygon id="NH06-14_04" class="cls-1" points="606.12 551.77 566.59 567.78 533.48 516.69 547.44 510.09 547.44 507.45 576.3 495.61 600.06 525.72 600.06 537.39 604.91 542.9 606.12 551.77"/>
  <polygon id="NH06-14_03" class="cls-1" points="630.53 541.89 606.12 551.77 604.91 542.9 600.06 537.39 600.06 525.72 576.3 495.61 600.48 485.69 617.24 505.68 619.66 527.26 630.53 541.89"/>
  <polygon id="NH06-14_02" class="cls-1" points="655.11 523.69 655.11 531.94 630.53 541.89 619.66 527.26 617.24 505.68 600.48 485.69 626.32 475.09 648.72 506.79 648.72 516.69 655.11 523.69"/>
  <polygon id="NH06-14_01" class="cls-1" points="692.76 512.73 692.76 516.69 655.11 531.94 655.11 523.69 648.72 516.69 648.72 506.79 626.32 475.09 655.33 463.19 692.76 512.73"/>
  <polygon id="NH06-13_04" class="cls-1" points="752.8 477.97 752.8 487.27 717.64 504.58 675.81 456.36 691.66 449.1 691.66 444.47 709.06 436.6 717.87 432.61 745.38 462.09 746.48 472.88 752.8 477.97"/>
  <polygon id="NH06-13_03" class="cls-1" points="752.8 487.27 752.8 477.97 746.48 472.88 745.38 462.09 717.87 432.61 740.86 422.2 761.24 443.15 762.56 461.65 777.54 475.09 752.8 487.27"/>
  <polygon id="NH06-13_02" class="cls-1" points="798.23 457.02 798.23 464.91 777.54 475.09 762.56 461.65 761.24 443.15 740.86 422.2 765.53 411.03 791.4 440.24 791.4 450.64 798.23 457.02"/>
  <polygon id="NH06-13_01" class="cls-1" points="798.23 464.91 798.23 457.02 791.4 450.64 791.4 440.24 765.53 411.03 791.84 399.12 818.92 427.52 818.7 431.48 833.02 447.78 798.23 464.91"/>
  <polygon id="NH06-12_01" class="cls-1" points="870.89 426.64 870.89 435.9 833.02 447.78 803.51 395.81 818.04 390.97 818.7 385.9 846.42 377.66 851.07 385.24 865.6 409.02 865.6 420.25 870.89 426.64"/>
  <polygon id="NH06-12_02" class="cls-1" points="870.89 435.9 870.89 426.64 865.6 420.25 865.6 409.02 851.07 385.24 846.42 377.66 872.01 370.05 884.32 391.63 886.74 412.99 897.13 427.68 870.89 435.9"/>
  <polygon id="NH06-12_03" class="cls-1" points="919.77 411.03 919.77 420.58 897.13 427.68 886.74 412.99 884.32 391.63 872.01 370.05 897.13 362.57 915.81 393.39 915.81 405.5 919.77 411.03"/>
  <polygon id="NH06-12_04" class="cls-1" points="919.77 420.58 919.77 411.03 915.81 405.5 915.81 393.39 897.13 362.57 925.27 354.2 934.96 371.37 936.72 371.37 958.74 408.36 919.77 420.58"/>
  <polygon id="NH06-11_04" class="cls-1" points="997.93 391.58 997.93 402.83 958.74 408.36 945.53 352.88 956.54 351.56 955.44 343.87 985.62 339.76 995.73 374.24 995.73 385.68 997.93 391.58"/>
  <polygon id="NH06-11_03" class="cls-1" points="997.93 402.83 997.93 391.58 995.73 385.68 995.73 374.24 985.62 339.76 1011.38 336.26 1018.41 359.48 1019.95 381.94 1026.03 398.86 997.93 402.83"/>
  <polygon id="NH06-11_02" class="cls-1" points="1050.12 383.04 1050.12 395.46 1026.03 398.86 1019.95 381.94 1018.41 359.48 1011.38 336.26 1038.2 332.61 1047.48 364.99 1047.48 377.1 1050.12 383.04"/>
  <polygon id="NH06-11_01" class="cls-1" points="1050.12 395.46 1050.12 383.04 1047.48 377.1 1047.48 364.99 1038.2 332.61 1068.83 328.44 1069.71 333.72 1074.78 333.72 1091.29 389.65 1050.12 395.46"/>
  <polygon id="NH06-10_01" class="cls-1" points="1228.25 363.45 1229.35 374.9 1227.14 381.72 1227.14 392.95 1187.29 387.45 1202.04 331.08 1207.77 330.2 1208.87 326.68 1238.81 331.11 1228.25 363.45"/>
  <polygon id="NH06-10_02" class="cls-1" points="1263.72 337.06 1263.72 340.77 1257.75 358.82 1256.44 379.96 1250.42 396.17 1227.14 392.95 1227.14 381.72 1229.35 374.9 1228.25 363.45 1238.81 331.11 1252.03 333.06 1252.03 335.48 1263.72 337.06"/>
  <polygon id="NH06-10_03" class="cls-1" points="1289.68 339.21 1289.68 344.95 1281.97 369.72 1281.97 378.2 1278.44 390.97 1278.44 400.04 1250.42 396.17 1256.44 379.96 1257.75 358.82 1263.72 340.77 1263.72 337.06 1274.92 338.57 1276.03 337.46 1289.68 339.21"/>
  <polygon id="NH06-10_04" class="cls-1" points="1315.88 344.85 1315.88 348.69 1309.71 366.61 1309.71 386.57 1303.71 403.54 1278.44 400.04 1278.44 390.97 1281.97 378.2 1281.97 369.72 1289.68 344.95 1289.68 339.21 1303.55 340.99 1303.77 343.63 1315.88 344.85"/>
  <polygon id="NH06-10_05" class="cls-1" points="1342.08 347.48 1342.08 355.52 1336.8 369.72 1333.27 380.4 1333.27 391.63 1330.82 400.04 1330.82 407.29 1303.71 403.54 1309.71 386.57 1309.71 366.61 1315.88 348.69 1315.88 344.85 1342.08 347.48"/>
  <polygon id="NH06-10_06" class="cls-1" points="1386.56 358.82 1370.48 412.77 1330.82 407.29 1330.82 400.04 1333.27 391.63 1333.27 380.4 1336.8 369.72 1342.08 355.52 1342.08 347.48 1371.81 350.46 1372.25 357.5 1386.56 358.82"/>
  <polygon id="NH06-9_04" class="cls-1" points="1435.62 375.09 1413.64 404.84 1413.64 415.26 1408.46 423.12 1408.46 432.79 1370.48 418.27 1370.48 414.75 1409.68 364.99 1435.62 375.09"/>
  <polygon id="NH06-9_03" class="cls-1" points="1459.58 386.37 1442.92 405.5 1442.92 425.98 1438.19 434.79 1438.19 444.15 1408.46 432.79 1408.46 423.12 1413.64 415.26 1413.64 404.84 1435.62 375.09 1447.55 379.74 1447.33 382.16 1459.58 386.37"/>
  <polygon id="NH06-9_02" class="cls-1" points="1483.44 392.95 1462.08 424.07 1462.08 435.23 1456.36 440.95 1456.36 451.1 1438.19 444.15 1438.19 434.79 1442.92 425.98 1442.92 405.5 1459.58 386.37 1469.13 389.65 1470.45 388.33 1482.12 392.95 1483.44 392.95"/>
  <polygon id="NH06-9_01" class="cls-1" points="1530.12 412.77 1530.12 414.75 1492.03 464.73 1456.36 451.1 1456.36 440.95 1462.08 435.23 1462.08 424.07 1483.44 392.95 1512.5 403.54 1512.06 406.38 1530.12 412.77"/>
  <polygon id="NH06-8_01" class="cls-1" points="1614.67 462.53 1583.84 488.29 1583.84 497.98 1574.59 505.68 1574.59 513.75 1543.99 493.79 1543.55 489.61 1556.32 478.82 1556.32 474.2 1589.57 447.56 1614.67 462.53"/>
  <polygon id="NH06-8_02" class="cls-1" points="1635.67 476.7 1613.57 493.35 1613.57 511.63 1596.02 527.72 1574.59 513.75 1574.59 505.68 1583.84 497.98 1583.84 488.29 1614.67 462.53 1614.67 464.73 1635.67 476.7"/>
  <polygon id="NH06-8_03" class="cls-1" points="1657.16 488.95 1626.78 515.37 1625.57 526.6 1617.53 531.89 1617.53 541.75 1596.02 527.72 1613.57 511.63 1613.57 493.35 1635.67 476.7 1657.16 488.95"/>
  <polygon id="NH06-8_04" class="cls-1" points="1698.12 515.37 1644.61 559.41 1617.53 541.75 1617.53 531.89 1625.57 526.6 1626.78 515.37 1657.16 488.95 1659.81 488.29 1684.47 504.14 1684.47 507.01 1698.12 515.37"/>
  <polygon id="NH06-7_01" class="cls-1" points="1726.52 529.68 1692.83 556.55 1692.83 568 1684.03 573.16 1684.03 583.68 1646.59 561.83 1700.76 515.35 1726.52 529.68"/>
  <polygon id="NH06-7_02" class="cls-1" points="1746.04 544.2 1722.65 562.87 1721.24 582.09 1705.96 596.48 1684.03 583.68 1684.03 573.16 1692.83 568 1692.83 556.55 1726.52 529.68 1726.52 532.55 1746.04 544.2"/>
  <polygon id="NH06-7_03" class="cls-1" points="1768.58 557.65 1736.65 583.85 1736.65 595.3 1729.71 600.8 1728.72 609.77 1705.96 596.48 1721.24 582.09 1722.65 562.87 1746.04 544.2 1768.58 557.65"/>
  <polygon id="NH06-7_04" class="cls-1" points="1812.83 584.73 1800.72 596.45 1800.67 596.49 1781.26 615.28 1781.57 617.54 1765.05 630.97 1728.72 609.77 1729.71 600.8 1736.65 595.3 1736.65 583.85 1768.58 557.65 1769.9 556.33 1796.1 571.74 1795.88 576.14 1812.83 584.73"/>
  <polygon id="NH06-6_04" class="cls-1" points="1841.9 600.36 1809.31 627.01 1809.31 638.68 1801.82 646.38 1801.82 653.57 1765.05 630.97 1781.57 617.54 1781.26 615.28 1800.67 596.49 1800.72 596.45 1815.03 584.73 1841.9 600.36"/>
  <polygon id="NH06-6_03" class="cls-1" points="1862.98 614.9 1841.9 632.73 1838.15 653.57 1821.86 665.89 1801.82 653.57 1801.82 646.38 1809.31 638.68 1809.31 627.01 1841.9 600.36 1841.9 602.57 1862.98 614.9"/>
  <polygon id="NH06-6_02" class="cls-1" points="1885.93 628.33 1854.23 657.17 1854.23 667.74 1845.9 673.68 1845.9 680.66 1821.86 665.89 1838.15 653.57 1841.9 632.73 1862.98 614.9 1885.93 628.33"/>
  <polygon id="NH06-6_01" class="cls-1" points="1931.07 656.29 1882.19 702.97 1845.9 680.66 1845.9 673.68 1854.23 667.74 1854.23 657.17 1885.93 628.33 1889.02 628.33 1914.12 643.96 1914.12 647.26 1931.07 656.29"/>
  <path id="NH06-5_04" class="cls-1" d="m1843.44,738.2l-53.07,48.22c-.7-.53-17.61-11.27-36-22.93v-5.25l12-9.67v-10.81l5.29-4.19v-3.08l24.22-22.24,5.06-5.28,28.19,18.49-.22,8.37,14.53,8.37Z"/>
  <path id="NH06-5_03" class="cls-1" d="m1795.88,708.25l-24.22,22.24v3.08l-5.29,4.19v10.81l-12,9.67v5.25c-8.17-5.18-16.64-10.55-24.1-15.28l.65-4.95,15.2-13.65v-12.99l31.7-26.64v5.94l18.06,12.33Z"/>
  <path id="NH06-5_02" class="cls-1" d="m1777.82,689.98l-31.7,26.64v12.99l-15.2,13.65-.65,4.95c-13.1-8.29-23.13-14.64-23.13-14.64v-5.06l13.88-12.55v-9.91l2.2-1.76v-4.4l32.81-25.32v2.42l4.62,1.98-.22,1.54,17.39,9.47Z"/>
  <polygon id="NH06-5_01" class="cls-1" points="1756.03 674.57 1723.22 699.89 1723.22 704.29 1721.02 706.05 1721.02 715.96 1707.14 728.51 1707.14 733.57 1673.68 712.22 1673.68 709.79 1728.5 658.27 1756.03 674.57"/>
  <polygon id="NH06-4_04" class="cls-1" points="1723.22 661.79 1671.92 709.79 1636.25 686.96 1636.25 682.27 1648.14 672.58 1648.14 659.81 1653.42 656.73 1653.42 654.09 1677.86 632.73 1682.7 627.67 1709.79 645.5 1709.35 654.97 1723.22 661.79"/>
  <polygon id="NH06-4_03" class="cls-1" points="1677.86 632.73 1653.42 654.09 1653.42 656.73 1648.14 659.81 1648.14 672.58 1636.25 682.27 1636.25 686.96 1613.79 672.58 1613.79 667.74 1629.42 654.53 1629.42 640.88 1652.1 619.96 1654.52 621.5 1659.81 617.54 1660.91 622.6 1677.86 632.73"/>
  <polygon id="NH06-4_02" class="cls-1" points="1659.81 617.54 1654.52 621.5 1652.1 619.96 1629.42 640.88 1629.42 654.53 1613.79 667.74 1613.79 672.58 1591.33 658.27 1591.33 653.87 1604.54 643.3 1604.54 630.75 1607.18 628.99 1607.18 625.24 1638.23 600.8 1638.23 601.77 1644.39 605.87 1644.17 607.41 1659.81 617.54"/>
  <polygon id="NH06-4_01" class="cls-1" points="1638.23 600.8 1607.18 625.24 1607.18 628.99 1604.54 630.75 1604.54 643.3 1591.33 653.87 1591.33 658.27 1560.72 639.12 1558.3 637.79 1578.78 618.64 1578.78 615.34 1581.42 612.47 1581.42 609.83 1606.67 589.71 1612.91 584.73 1638.23 600.8"/>
  <polygon id="NH06-3_04" class="cls-1" points="1606.67 589.71 1581.42 609.83 1581.42 612.47 1578.78 615.34 1578.78 618.64 1558.3 637.79 1524.74 615.92 1524.74 610.49 1536.72 601.77 1536.72 590.24 1566.45 563.37 1572.39 558.09 1597.05 575.04 1597.49 584.29 1606.67 589.71"/>
  <polygon id="NH06-3_03" class="cls-1" points="1566.45 563.37 1536.72 590.24 1536.72 601.77 1524.74 610.49 1524.74 615.92 1503.03 601.77 1503.03 597.28 1518.01 584.29 1518.01 570.64 1541.79 550.82 1543.77 552.14 1549.71 546.64 1550.59 552.8 1566.45 563.37"/>
  <polygon id="NH06-3_02" class="cls-1" points="1549.71 546.64 1543.77 552.14 1541.79 550.82 1518.01 570.64 1518.01 584.29 1503.03 597.28 1503.03 601.77 1481.46 587.71 1481.46 583.41 1494.23 572.84 1494.23 560.73 1496.21 559.41 1496.21 555.45 1504.8 549.5 1528.36 533.21 1549.71 546.64"/>
  <polygon id="NH06-3_01" class="cls-1" points="1528.36 530.46 1528.36 533.21 1504.8 549.5 1496.21 555.45 1496.21 559.41 1494.23 560.73 1494.23 572.84 1481.46 583.41 1481.46 587.71 1449.53 566.9 1449.53 562.27 1471.99 544 1471.77 540.05 1485.64 528.8 1486.96 530.46 1503.48 516.47 1528.36 530.46"/>
  <polygon id="NH06-2_01" class="cls-1" points="1475.07 507.01 1439.84 555.45 1401.31 540.05 1401.31 535.41 1409.68 524.62 1409.68 513.17 1433.46 479.92 1433.46 477.72 1436.1 477.5 1463.4 489.83 1463.4 501.72 1475.07 507.01"/>
  <polygon id="NH06-2_02" class="cls-1" points="1433.46 479.92 1409.68 513.17 1409.68 524.62 1401.31 535.41 1401.31 540.05 1377.31 530.46 1377.31 526.16 1388.32 511.63 1388.32 496.88 1408.46 469.66 1433.46 479.92"/>
  <polygon id="NH06-2_03" class="cls-1" points="1408.46 469.66 1388.32 496.88 1388.32 511.63 1377.31 526.16 1377.31 530.46 1353.16 520.81 1353.09 514.27 1360.58 505.24 1360.58 491.37 1386.56 460.66 1408.46 469.66"/>
  <polygon id="NH06-2_04" class="cls-1" points="1386.56 458.13 1386.56 460.66 1360.58 491.37 1360.58 505.24 1353.09 514.27 1353.16 520.81 1315.88 505.9 1315.88 503.04 1358.81 448.22 1386.56 458.13"/>
  <polygon id="NH06-1_04" class="cls-1" points="1334.81 448.88 1322.04 493.79 1313.9 503.04 1279.33 498.2 1277.08 497.86 1281.53 483.01 1281.53 469.13 1291.44 436.77 1292.1 431.26 1323.59 436.55 1323.81 449.1 1334.81 448.88"/>
  <polygon id="NH06-1_03" class="cls-1" points="1291.44 436.77 1281.53 469.13 1281.53 483.01 1277.08 497.86 1250.42 493.79 1256.21 476.84 1256.21 459.34 1262.46 433.93 1277.13 435.89 1278.01 433.9 1291.44 436.77"/>
  <polygon id="NH06-1_02" class="cls-1" points="1262.46 433.93 1256.21 459.34 1256.21 476.84 1250.42 493.79 1224.5 489.83 1224.06 483.67 1228.47 473.76 1228.47 454.16 1238.81 428.84 1250.92 429.72 1250.7 432.36 1262.46 433.93"/>
  <polygon id="NH06-1_01" class="cls-1" points="1239.7 421.35 1238.81 428.84 1228.47 454.16 1228.47 473.76 1224.06 483.67 1224.5 489.83 1185.09 483.01 1185.09 479.48 1201.38 428.84 1204.91 429.28 1207.55 418.27 1239.7 421.35"/>
</svg>